<svg xmlns="http://www.w3.org/2000/svg" viewBox="0 0 145 145" style="enable-background:new 0 0 145 145" xml:space="preserve"><ellipse cx="72.5" cy="72.5" rx="62" ry="28.9" style="fill:#f5becf"/><path d="M72.5 103c-16.8 0-32.6-3.1-44.5-8.6C15.6 88.7 8.9 80.9 8.9 72.5S15.6 56.3 28 50.6C39.9 45 55.7 42 72.5 42s32.6 3.1 44.5 8.6c12.3 5.7 19.1 13.5 19.1 21.9s-6.8 16.2-19.1 21.9c-11.9 5.6-27.7 8.6-44.5 8.6zm0-57.7c-16.3 0-31.7 2.9-43.2 8.3-11.1 5.2-17.2 11.9-17.2 18.9s6.1 13.8 17.2 18.9c11.5 5.4 26.8 8.3 43.2 8.3s31.7-2.9 43.2-8.3c11.1-5.2 17.2-11.9 17.2-18.9s-6.1-13.8-17.2-18.9c-11.5-5.4-26.9-8.3-43.2-8.3z"/><path d="M57.2 66.3c.9-1.1 2-2.3 2.9-3.4.3-.3.4-.6.6-.9.4-.9-.1-1.8-1.1-2-1-.2-2.6.6-3.2 1.5-.1.1-.1.2-.2.3-.1.1-.2.3-.3.4L44.2 75.3c-.7.7-1.7 1.2-2.6 1.8l-.1.1c-2.1 1.3-4.6 2.6-7.6 2.9-1.2.1-1.8-.1-2.1-.5-.4-.5-.3-1.1.5-1.9 1-1.2 2.3-2.3 4-3.3 2.5-1.5 5.3-2.4 7.9-3.3 1.4-.5 1.6-1.1 1.6-2.1-.1-1-1-1.5-2.2-1.4-.2 0-.4.1-.6.1-.5.1-.9.2-1.4.2h-.4c-.9 0-1.4 0-1.6-.3-.3-.5-.1-1 .8-1.9 1.4-1.5 2.9-2.7 4.6-3.6 1.2-.6 2.4-1.1 3.6-1.6l.5-.2h.1c0 .1-.1.2-.1.2-.4.4-.9.9-1.4 1.3-.5.5-.8.9-1.3 1.3-.6.6-1 1.1-1.4 1.7-.5.8-.4 1.8.6 2.1 1 .4 2 .1 2.7-.7l.6-.6c1-1 1.9-2 2.9-3l.1-.1c1-1 2-2.1 2.2-3.5.2-.9-.2-1.5-1.1-2-1.5-.7-3.2-.4-4.6-.1-4.4 1.2-8.3 3.4-11.8 7-1.3 1.3-2 2.6-2.1 3.9-.1 1.3.5 2.1 2 2.4.1 0 .2 0 .3.1-.1 0-.1.1-.2.1-.4.2-.9.5-1.3.7l-2.7 1.5c-2.6 1.5-4.4 3.3-5.5 5.4-.6 1.2-.6 2.5 0 3.5s1.8 1.7 3.3 1.9c.5.1.9.1 1.4.1 2.2.1 4.4-.4 6.5-1.3 1.4-.6 2.8-1.4 4.1-2 .4-.2.9-.5 1.4-.7.6.8 1.8 1.2 3.1 1 1.1-.2 2.1-.5 3.1-.8.3-.1.6-.2.8-.3.3-.1.5-.2.8-.3.3 1 .9 1.6 1.7 1.8.9.3 2.1.1 3.5-.6.9-.4 1.8-1 2.6-1.6.2-.2.5-.3.8-.5 0 .1 0 .2-.1.3-.1.8.1 1.5.6 1.9.5.4 1.4.6 2.4.5 1.3-.1 2.6-.6 3.9-1.4.3-.2.6-.3.8-.5.3 1.1 1 1.8 2.2 2.2 2.1.7 4.4.5 7-.7.9-.4 1.8-.8 2.8-1.3.1-.1.3-.1.4-.2v.2c-.2.3-.2.7-.2 1.1.1.6.5 1.1 1.1 1.4.7.3 1.6.3 2.5 0 1.1-.4 2.2-.9 3.3-1.4l1.2-.6h.1c0 .9.2 1.5.8 1.9.7.4 1.7.5 3.1.2 1.2-.3 2.4-.8 3.6-1.4.6-.3 1.2-.7 1.8-1 0 1.3.9 2.3 2.3 2.6 2.1.3 4 .2 5.6-.6l.6-.4c1.5-.7 3.1-1.4 4.5-2.3.2-.1.4-.2.6-.4 2.1-1.3 4.3-2.6 5.4-4.7.6-1 .3-1.7-.8-2l-.3-.1-.3.2c-.1.1-.2.2-.4.3-.3.2-.6.4-.8.6-2.5 2-5.3 3.8-8.3 5.1-.7.3-1.7.6-2.7.8-.3.1-.8.1-1-.1-.2-.2-.2-.5-.1-.8.7-2.6 2.7-4.9 6-6.7-.4.4-.9.8-1.3 1.2-.4.4-.9 1.1-1.1 1.7-.1.4 0 .8.4 1.1.4.3.9.3 1.6.1.5-.1 1.1-.3 1.5-.7 1.1-1.1 2.2-2.3 3.2-3.6.7-.9.9-2 .6-3-.2-.8-1-1.2-2.1-1.2-1.4 0-2.6.4-3.6 1l-.1.1c-1.4.9-2.9 1.9-4.2 3-.9.8-1.8 1.6-2.6 2.3l-3 2.7c-.9.7-2 1.3-3 1.9-.4.2-.8.4-1.1.6h-.1V78c.5-.6 1-1.3 1.5-1.9.4-.5.7-.9 1.1-1.4.4-.5.9-1.2 1.6-1.9.8-1 1.7-2 2.2-2.7.6-.8.4-1.6-.4-2-.8-.4-2-.3-2.8.5-.4.3-.9.8-1.3 1.2-1.4 1.6-4 4.2-5.9 5.5-1.2.9-2.5 1.7-3.8 2.4-.1.1-.4.1-.5.1v-.4c.3-.6.7-1.3 1.1-1.9 1.8-2.8 4.3-5.4 6.7-8 .3-.3.6-.7.9-1 .1-.1.3-.1.4-.2.8 0 1.7-.1 2.5-.1 1.2 0 5.3-.3 6.5-.3.7 0 1.4-.3 2-.7.5-.3.8-.8.7-1.2-.1-.4-.5-.8-1.1-.9-.7-.1-1.5-.2-2.2-.1-1 0-4.9.3-6 .3h-.6c.2-.2.3-.5.4-.7.5-.8.1-1.7-.7-2-1-.4-1.8.2-2.3.6h-.1c-.2.2-.4.4-.5.6l-.1.1c-.6.9-.8 1.2-1.2 1.3-.3.2-.9.2-2 .2h-.7c-.7 0-1.5 0-2.3.1-.7.1-1.2.3-1.5.7-.4.4-.5.9-.3 1.5.4 1 1.7 1.2 2.1 1.1.7-.1 1.3-.2 2.1-.2-.1.1-.2.2-.2.3-.4.5-.9 1-1.3 1.5-1.1 1.2-2.2 2.4-3.1 3.6-.8 1-1.8 2.2-3.2 3-.9.5-1.7 1-2.6 1.6h-.1c.3-.7.6-1.4.8-2.1.3-1.1.4-2.1.6-3.2.1-.7.3-1.5.4-2.2.1-.4.3-.7.5-.9.5-.4 1-1 .5-1.9-.4-.6-1.2-.8-2.2-.4-.5.2-1.3.5-1.9 1-1.6 1.3-3.5 2.7-5.2 4.3L69.6 73l-1.8 1.8c-1 .8-2.1 1.6-3.2 2.3l-.2.2c-.1 0-.3.1-.4 0v-.4c.1-.3.2-.7.4-.9 1.2-1.6 2.4-3.1 3.6-4.6.4-.5.7-.9 1.1-1.4.1-.2.3-.4.4-.6.3-.4.7-.9 1-1.3.2-.3.5-1.1.1-1.4-.4-.3-1.1-.5-1.8-.4-.5.1-.9.4-1.4.7-.7-.8-1.5-.9-3.2-.5-1.5.3-3 1-4.2 2-1.3 1.1-2.6 2.2-3.9 3.2-.5.4-1 .9-1.5 1.3l-.3.2c-1.7 1.4-3.2 2.7-5.3 3.5-.3.3-.6.3-.8.3 0-.2 0-.3.1-.4l8.9-10.3zm16.5 10.8c-.1.1-.2.3-.3.4-.7.6-1.1.6-1.4.5-.3-.1-.6-.2-.5-1 .1-.8.5-1.5 1.3-2.1.9-.8 1.7-1.5 2.5-2.3l.1-.1c-.3 1.5-.7 3.1-1.7 4.6zm-9.3-6.8c-2.3 2.7-4.6 4.7-7 6.3h-.1c-.2.1-.3.2-.5.3-.1 0-.3.1-.5.1 0-.1 0-.2-.1-.2v-.1c.1-.2.2-.3.3-.5.3-.4.5-.8.9-1.1 1.6-1.5 3.3-2.9 5-4.2.4-.3 1-.6 1.5-.8.2-.1.3-.2.5-.2h.1v.1c.1 0 0 .1-.1.3zM103.7 62.4c.8 0 1.5-.2 2.1-.5.5-.3.8-.7.9-1.1.2-1-.4-1.8-1.5-1.8-1.5 0-2.8.6-3.1 1.6-.2.6-.1 1 .2 1.3.2.3.7.5 1.4.5z"/></svg>