<svg version="1.1" id="_x32_" xmlns="http://www.w3.org/2000/svg" x="0" y="0" viewBox="0 0 145 145" style="enable-background:new 0 0 145 145" xml:space="preserve"><style>.st1{fill:#f1e1c0}</style><path d="M121.7 81.4c3.4-2.6 6.3-6.5 7.6-10.4 1.2-3.2 2.3-7.1.9-10.8-.7-1.9-1-2.8-2.9-5.6l-3.4-5-4.2-6.4c-.5-.8-1.1-1.4-1.8-1.9-1.3-1.1-2.9-1.7-4.8-1.8h-.7c-.6 0-1.2 0-1.8.1l-.8-1.4c-.1-.1-.6-1.1-.7-1.3-.8-1.3-1.8-1.5-8.9-.5l-22.4 3.1c-1-2.7-5.3-3.1-7-2.9l-1.1.1c-1.8.2-3.6.8-5.1 1.7-1.2.7-2.4 1.8-3.1 3.2l-22.2 3.5s-3.4.6-6.3 1.7c-4.3 1.6-7.4 3.9-9.3 7.8-.9 1.9-1.5 3.6-1.7 5.2-.1.7-.1 1.4-.1 2-1.2.9-2.3 1.9-3.3 3.1-1.7 2.1-3 4.6-3.8 7.4-.9 3.4-.7 6.5.6 9.1l6.2 10.3c1.6 3.3 4.8 5.3 8.7 5.4 0 0 1.8 0 3-.2l79.3-11.7c-.1.2 4.8-.5 9.1-3.8z" style="fill:#b9a8d2"/><path d="m114.8 46 8.8 12.8c.7.8 1.1 1.8 1.3 2.6.4 1.7.8 4.3-.8 7.5l-4.9-5.4-4.4-17.5zM104.5 40.1l3.7 6.8-5.2 8.3-4.4-10.6zM43.6 88 37 77.7l12.6 2.4zM43.1 51.4l6.6 11.4-4.9 11.4-17.7.6-2-4.7 5.2-6.1 1.8-8.1zM92.8 43.7l6.1 10.7-12.1 8.4-3.3-1.8zM81 51.7l1.8 8.2-8.1 6.3.4-12.9zM67.6 54.1l1.7 5.6-2.4 7.4h-5.4l-7.3 1.4v-7.1z"/><path d="m114.8 46 6.2 10.6 3.1 8.5-12.6 3.4-6.8-5.5-1.7-7.8 3.7-8zM100.1 47.7l-.6 9.6-3.7 5.1s-1.3-7.8-1-8c.3-.2 5.3-6.7 5.3-6.7z"/><path d="m20.3 79 6.2 10.3 18.4-7 15-2.8 10.3-1.8 10.6-1 9-2 12.2-3.3 12.4 3.3 9.5-9.8-6.3-10.6-8.9 8.8-7.1-3.6L87.3 61l-30.2 8-19.9 2.8z"/><path d="M105 72.4c-.8.9-1.4 1.9-2.1 2.6-1.1 1-2.2 2.2-3.4 2.8-2.6 1.5-4.2.5-3.9-2.2 0-.3.1-.7.2-1.3-.4.5-.7.8-.9 1.1-1.6 1.9-3.3 3.5-5.3 4.4-3.1 1.3-4.6.3-4.3-2.8v-.4c-1.3 1.2-2.6 2.5-4 3.6-2.2 1.7-4.4 2.5-6.5 2.4-1.7 0-2.8-.8-3.1-2.5 0-.2-.1-.3-.1-.5h-.1c-.5.6-.9 1.2-1.4 1.8-.7.7-1.4 1.5-2.1 2.1-1.4 1.1-2.7 1.6-3.9 1.2-1.1-.5-1.2-1.8-.9-3.2.1-.5.2-1.1.4-1.8-.9 1.2-1.6 2.2-2.5 3.2-.9 1-2 2-3.1 2.8-2.5 1.8-4.5 1.2-4.7-1.2-.1-.6 0-1.3 0-2.1-.7.9-1.4 1.7-2.1 2.5-1.4 1.6-3 2.9-4.8 3.5-2.5.7-3.6-.4-3-3 .1-.3.1-.6.2-1-1.1 1.1-2.2 2.1-3.2 3-3.3 2.8-6.7 4.4-10 4.4-3.5-.1-5-2.9-3.8-7.1 1.2-4.2 3.7-7.3 7.1-8.7.5-.2 1.1-.5 1.6-.8-.2-.3-.5-.6-.7-1-1.2-1.6-.7-3.9.5-6.3 1.5-3 3.8-4.9 6.5-6.1 2.1-.9 4.1-1.4 5.9-1.1 3 .5 3.4 4.6.9 8.1-.3.4-.6.8-1 1.1-1.4 1.3-2.2 1-2-.5.2-1.5-.3-2.1-1.6-2.1-1.6 0-3.3 1-4.3 2.5-.9 1.4-1.1 2.9-.4 3.6.3.3.8.4 1.2.3 1.1-.2 2.3-.6 3.5-1 .8-.2 1 .1.8.8-.2 1.6-1.1 2.8-2.7 3.6-1.8.9-3.5 1.2-4.9.6-.2-.1-.6 0-.9.1-1.6 1-2.3 3.4-1.2 4.2.2.1.3.2.5.3 2.8.5 5.8-.1 9-2.4 1-.7 1.7-1.6 2.3-2.8l6.6-12.3c.7-1.2 1.5-2.4 2.3-3.5.4-.5.9-1 1.3-1.4.9-.8 2-1.1 2.4-.7.6.5.2 1.4-.2 2.3-.6 1.1-1.3 2.2-1.9 3.3-2 3.6-4 7.3-6 10.9-.4.7-.5 1.5-.7 2.3-.2.8.3 1.1 1 1.1 1.5-.1 3.1-1.4 4.1-3.3 1.5-2.8 3.2-5.4 5.7-7.4 1.9-1.6 3.9-2.5 5.8-2.5.5 0 1 .2 1.4.5.6.5 1.2.3 2-.4.5-.4 1.1-.9 1.6-1.1 1.4-.7 2-.1 1.5 1.4-.3.8-.8 1.6-1.2 2.3-.8 1.4-1.6 2.7-2.3 4.1-.8 1.5-.8 2.5-.2 2.7.8.3 2.4-.5 3.3-1.7.8-1.1 1.6-2.2 2.5-3.3 1.7-2.1 3.3-4.3 5.1-6.4 1.5-1.7 3.2-3 4.9-2.7.5.1 1 .4 1.3.8.6.8.1 1.7-1 2.6-2.4 1.7-2.3 1.7-1.9 3.9.3 1.3.5 2.7.8 4.1 1.4-.5 2.5-1.8 3.3-3.1 1.1-1.8 2.7-4.7 3.5-6.3-.4-.5-1.7.3-1.8-.3-.2-.9.3-1.6 1.4-2 1.4-.5 2.5-1.5 3.5-3 .4-.6.7-1.2 1.1-1.7.4-.5.8-1.2 1.3-1.4.6-.3 1.4-.6 1.9-.4.3.1.2 1 0 1.6-.3.9-.9 1.8-1.4 2.6-.5.9-.4 1.1.5 1 .1 0 .3-.1.5-.1.7-.1 1.6-.5 1.3.7-.3 1.4-1.3 2.7-2.3 2.9-.5.1-1.1.2-1.6.4-1.3.3-1.8.8-2.6 2.2-.3.5-.5 1-.7 1.5-1.2 2.8 0 4.3 2.7 3.1 1.4-.6 2.4-1.7 3.3-3.2 1.3-2.3 2.7-4.7 4.1-6.9.5-.7 1.3-1.4 2-1.8 1.1-.7 1.8-.2 1.4 1-.3 1.2-.9 2.4-1.4 3.7-.5 1.2-1.2 2.4-1.7 3.6-.5 1.3-.3 2.2.6 2.2 1 0 2.2-.9 2.8-2.2 1.5-3.4 3.5-6.4 6.6-8.7 2-1.5 4-2.3 6-2.2 1.5.1 2.4.9 2.4 2.5 0 1.8-.6 3.6-2.3 5.3-1.1 1.1-2.3 1.7-3.5 1.6-.9-.1-1-.6-.2-1.6.8-1.1 1.1-2.1.6-2.5-.5-.4-1.7 0-2.6.8-.2.2-.4.4-.5.6-1.5 2.2-1.8 4.3-1.5 6.1.3 1.7 1.6 2.1 3.3 1.9 2.3-.3 4.5-1.4 6.4-3.8.2-.2.4-.4.5-.6 1.5-1.6 2.5-1.6 2.6.2.3 3.3-2.4 8-6.1 10.7-7 5.2-13.6 3-13.3-4.7zm-43.7 5.3c1.8-.3 3.9-2.7 4.1-4.7.1-1.1-.5-1.6-1.6-1.3-1.9.5-3.9 3-3.9 4.8 0 1 .5 1.3 1.4 1.2zm18.1-9.6c-1.4 1.7-2.7 3.4-4 5.1-.5.7-.3 1.1.1 1.3.9.7 2.9-.2 3.9-1.7.8-1.4.9-3.7 0-4.7z"/><path class="st1" d="M98.9 43.1c.5-1.3 1.3-2.4 2.8-3.1.4-.1.7-.2 1.1-.3 1.3-.1 1.9.4 1.7 1.6-.3 1.6-1.1 2.7-2.7 3.4-.6.2-1.2.3-1.7.3-1.2.1-1.6-.6-1.2-1.9z"/><path d="M99.9 45.3c-.5 0-1-.2-1.2-.5-.3-.4-.3-1-.1-1.8.5-1.2 1.2-2.5 2.9-3.2.3-.1.7-.2 1.2-.3.8-.1 1.3.1 1.7.4.3.3.4.8.3 1.5-.3 1.7-1.2 2.8-2.8 3.5-.6.3-1.2.4-2 .4.1 0 .1 0 0 0zm-.8-2.1c-.2.7-.2 1.1 0 1.4.2.2.4.3.9.3.6 0 1.2-.1 1.6-.3 1.5-.6 2.3-1.6 2.5-3.2.1-.5 0-.8-.2-1.1-.2-.2-.6-.3-1.2-.3-.4 0-.7.1-1 .3-1.5.6-2.1 1.7-2.6 2.9zM53.4 48.6l4.8 7L49.7 70l-8.6 2.5 3.7-12.6zM74.7 66.2l1-11.2-4.5 2.2-4.1 8.5zM100.1 47.7l2.9 4.7-4.6 7.1-3.8-1.6z"/><path class="st1" d="M98.6 61.7c-.8.9-1.4 1.9-2.1 2.6-1.1 1-2.2 2.2-3.4 2.8-2.6 1.5-4.2.5-3.9-2.2 0-.3.1-.7.2-1.3-.4.5-.7.8-.9 1.1-1.6 1.9-3.3 3.5-5.3 4.4-3.1 1.3-4.6.3-4.3-2.8v-.4c-1.3 1.2-2.6 2.5-4 3.6-2.2 1.7-4.4 2.5-6.5 2.4-1.7 0-2.8-.8-3.1-2.5 0-.2-.1-.3-.1-.5h-.1c-.5.6-.9 1.2-1.4 1.8-.7.7-1.4 1.5-2.1 2.1-1.4 1.1-2.7 1.6-3.9 1.2-1.1-.5-1.2-1.8-.9-3.2.1-.5.2-1.1.4-1.8-.9 1.2-1.6 2.2-2.5 3.2-.9 1-2 2-3.1 2.8-2.5 1.8-4.5 1.2-4.7-1.2-.1-.6 0-1.3 0-2.1-.7.9-1.4 1.7-2.1 2.5-1.4 1.6-3 2.9-4.8 3.5-2.5.7-3.6-.4-3-3 .1-.3.1-.6.2-1-1.1 1.1-2.2 2.1-3.2 3-3.3 2.8-6.7 4.4-10 4.4-3.5-.1-5-2.9-3.8-7.1 1.2-4.2 3.7-7.3 7.1-8.7.5-.2 1.1-.5 1.6-.8-.2-.3-.5-.6-.7-1-1.2-1.6-.7-3.9.5-6.3 1.5-3 3.8-4.9 6.5-6.1 2.1-.9 4.1-1.4 5.9-1.1 3 .5 3.4 4.6.9 8.1-.3.4-.6.8-1 1.1-1.4 1.3-2.2 1-2-.5.2-1.5-.3-2.1-1.6-2.1-1.6 0-3.3 1-4.3 2.5-.9 1.4-1.1 2.9-.4 3.6.3.3.8.4 1.2.3 1.1-.2 2.3-.6 3.5-1 .8-.2 1 .1.8.8-.2 1.6-1.1 2.8-2.7 3.6-1.8.9-3.5 1.2-4.9.6-.2-.1-.6 0-.9.1-1.6 1-2.3 3.4-1.2 4.2.2.1.3.2.5.3 2.8.5 5.8-.1 9-2.4 1-.7 1.7-1.6 2.3-2.8l6.6-12.3c.7-1.2 1.5-2.4 2.3-3.5.4-.5.9-1 1.3-1.4.9-.8 2-1.1 2.4-.7.6.5.2 1.4-.2 2.3-.6 1.1-1.3 2.2-1.9 3.3-2 3.6-4 7.3-6 10.9-.4.7-.5 1.5-.7 2.3-.2.8.3 1.1 1 1.1 1.5-.1 3.1-1.4 4.1-3.3 1.5-2.8 3.2-5.4 5.7-7.4 1.9-1.6 3.9-2.5 5.8-2.5.5 0 1 .2 1.4.5.6.5 1.2.3 2-.4.5-.4 1.1-.9 1.6-1.1 1.4-.7 2-.1 1.5 1.4-.3.8-.8 1.6-1.2 2.3-.8 1.4-1.6 2.7-2.3 4.1-.8 1.5-.8 2.5-.2 2.7.8.3 2.4-.5 3.3-1.7.8-1.1 1.6-2.2 2.5-3.3 1.7-2.1 3.3-4.3 5.1-6.4 1.5-1.7 3.2-3 4.9-2.7.5.1 1 .4 1.3.8.6.8.1 1.7-1 2.6-2.4 1.7-2.3 1.7-1.9 3.9.3 1.3.5 2.7.8 4.1 1.4-.5 2.5-1.8 3.3-3.1 1-1.6 2.4-4.3 3.3-6 .1-.2 0-.5-.3-.5-.5 0-1 .2-1.3-.1-.7-.8.3-1.6 1.4-2 1.4-.5 2.5-1.5 3.5-3 .4-.6.7-1.2 1.1-1.7.4-.5.9-1.3 1.3-1.6.6-.5 1.4-.6 1.8-.2.2.2.2 1 0 1.6-.3.9-.9 1.8-1.4 2.6-.5.9-.4 1.1.5 1 .1 0 .3-.1.5-.1.7-.1 1.6-.5 1.3.7-.3 1.4-1.3 2.7-2.3 2.9-.5.1-1.1.2-1.6.4-1.3.3-1.8.8-2.6 2.2-.3.5-.5 1-.7 1.5-1.2 2.8 0 4.3 2.7 3.1 1.4-.6 2.4-1.7 3.3-3.2 1.3-2.3 2.7-4.7 4.1-6.9.5-.7 1.3-1.4 2-1.8 1.1-.7 1.8-.2 1.4 1-.3 1.2-.9 2.4-1.4 3.7-.5 1.2-1.2 2.4-1.7 3.6-.5 1.3-.3 2.2.6 2.2 1 0 2.2-.9 2.8-2.2 1.5-3.4 3.5-6.4 6.6-8.7 2-1.5 4-2.3 6-2.2 1.5.1 2.4.9 2.4 2.5 0 1.8-.6 3.6-2.3 5.3-1.1 1.1-2.3 1.7-3.5 1.6-.9-.1-1-.6-.2-1.6.8-1.1 1.1-2.1.6-2.5-.5-.4-1.7 0-2.6.8-.2.2-.4.4-.5.6-1.5 2.2-1.8 4.3-1.5 6.1.3 1.7 1.6 2.1 3.3 1.9 2.3-.3 4.5-1.4 6.4-3.8.2-.2.4-.4.5-.6 1.5-1.6 2.5-1.6 2.6.2.3 3.3-2.4 8-6.1 10.7-6.9 5.2-13.4 3-13.2-4.7zM54.9 67c1.8-.3 3.9-2.7 4.1-4.7.1-1.1-.5-1.6-1.6-1.3-1.9.5-3.9 3-3.9 4.8.1 1 .6 1.4 1.4 1.2zm18.2-9.5c-1.4 1.7-2.7 3.4-4 5.1-.5.7-.3 1.1.1 1.3.9.7 2.9-.2 3.9-1.7.8-1.5.9-3.7 0-4.7z"/><path d="M24.2 81.3H24c-1.6 0-2.8-.6-3.6-1.6-1-1.3-1.2-3.4-.5-5.7 1.2-4.2 3.7-7.4 7.2-8.9.3-.1.7-.3 1.1-.5.1 0 .2-.1.2-.1v-.1c-.2-.2-.3-.4-.5-.7-1.1-1.5-1-3.6.5-6.6 1.3-2.7 3.6-4.8 6.6-6.2 2.3-1 4.3-1.4 6-1.1 1.1.2 2 .9 2.4 1.9.8 1.8.2 4.4-1.3 6.6-.3.4-.7.8-1 1.1-.9.8-1.5 1-2 .8-.4-.2-.5-.7-.4-1.5.1-.7 0-1.2-.2-1.4-.2-.2-.6-.3-1.1-.3-1.5 0-3.2 1-4.1 2.4-.8 1.3-1 2.7-.4 3.3.2.2.6.3 1 .2 1-.2 2-.5 2.9-.8l.5-.2c.4-.1.7-.1 1 .1.3.3.3.7.2 1-.3 1.7-1.2 3-2.8 3.8-2.1 1-3.8 1.2-5.1.6-.1 0-.4 0-.6.1-1 .7-1.6 1.9-1.6 2.8 0 .3.1.8.4 1 .1.1.3.2.4.2 3 .5 5.9-.2 8.8-2.4.9-.6 1.6-1.5 2.2-2.7 1.9-3.6 4.2-7.9 6.6-12.4.6-1.1 1.4-2.2 2.2-3.3l.2-.2c.4-.6 1-1.1 1.4-1.5 1-.9 2.2-1.2 2.8-.8.9.7.2 1.9-.2 2.6-.3.6-.7 1.2-1 1.7-.3.5-.6 1-.9 1.6-2 3.7-4 7.3-6 10.9-.4.7-.5 1.4-.7 2.2 0 .2-.1.5.1.6.1.2.4.2.7.1 1.4-.1 2.9-1.4 3.9-3.2 1.8-3.4 3.6-5.7 5.8-7.5 2.1-1.7 4.1-2.6 5.9-2.5.6 0 1.2.2 1.6.6.4.3.8.4 1.7-.4.5-.4 1.1-.9 1.6-1.2 1-.5 1.5-.3 1.7-.1.3.2.5.7.1 1.8-.3.6-.6 1.3-1 1.9-.1.2-.2.3-.3.5l-.9 1.5c-.5.8-1 1.7-1.4 2.5-.5 1-.7 1.7-.6 2.1 0 .1.1.2.2.2.6.2 2.1-.4 3-1.6.4-.5.8-1 1.1-1.5.4-.6.9-1.2 1.4-1.8.4-.5.8-1 1.1-1.5 1.3-1.6 2.6-3.3 3.9-4.9 1.9-2.2 3.5-3.1 5.2-2.8.6.1 1.2.4 1.5.9.3.4.8 1.6-1.1 2.9-1.1.8-1.7 1.3-1.9 1.7-.2.4-.1.9.1 1.9.2.9.4 1.8.5 2.8.1.3.1.7.2 1 1.3-.6 2.3-1.9 2.9-2.9 1-1.7 2.5-4.4 3.3-5.9v-.1h-.5c-.4 0-.8.1-1.1-.2-.3-.1-.3-.5-.3-.7.2-.8 1.3-1.2 1.7-1.4 1.3-.5 2.4-1.4 3.3-2.9.1-.2.3-.4.4-.6.2-.4.4-.7.7-1.1l.3-.3c.3-.5.7-1 1.1-1.3.7-.6 1.6-.7 2.2-.2.4.3.3 1.3.1 1.9-.2.6-.6 1.2-.9 1.8-.2.3-.3.6-.5.9l-.3.6h1c.1 0 .2 0 .3-.1.4-.1.9-.2 1.2.1.3.3.2.7.2 1-.3 1.5-1.4 2.8-2.4 3.1-.3.1-.6.1-.9.2-.2.1-.5.1-.8.2-1.2.3-1.7.7-2.4 2.1-.2.4-.4.9-.7 1.5-.6 1.3-.6 2.4-.1 2.8.4.4 1.3.4 2.4-.1 1.3-.6 2.3-1.5 3.2-3.1 1.5-2.6 2.8-4.9 4.2-6.9.6-.9 1.7-1.6 2.1-1.9.6-.4 1.2-.5 1.6-.2.2.2.5.5.2 1.4-.3 1.1-.8 2.3-1.3 3.4l-.1.3c-.2.5-.5 1.1-.8 1.6-.3.6-.6 1.3-.9 1.9-.3.7-.3 1.3-.1 1.6.1.2.3.2.5.3.9 0 2-.8 2.6-2 1.7-3.8 3.9-6.7 6.7-8.8 2.1-1.6 4.2-2.3 6.1-2.2 1.7.1 2.6 1.1 2.6 2.8 0 2-.8 3.9-2.4 5.5-1.2 1.2-2.4 1.8-3.7 1.7-.5 0-.8-.2-.9-.5-.2-.4 0-.9.5-1.6.7-1 1-1.8.6-2.2-.3-.3-1.4 0-2.2.8-.2.2-.4.4-.5.6-1.3 2-1.8 3.9-1.4 5.9.3 1.4 1.2 1.9 3 1.7 2.4-.3 4.4-1.5 6.3-3.7l.4-.4.2-.2c.9-1 1.7-1.4 2.3-1.2.5.2.7.7.8 1.5.3 3.3-2.4 8.2-6.2 11-3.8 2.9-7.7 3.7-10.5 2.3-2.1-1.1-3.2-3.3-3.3-6.3-.1.1-.2.2-.2.3-.5.6-.9 1.2-1.4 1.7l-.1.1c-1.1 1-2.2 2.1-3.3 2.7-1.8 1-2.8.8-3.3.4-.5-.3-1.1-1.1-.9-2.9 0-.1 0-.3.1-.4-.1.1-.2.3-.4.4-1.3 1.6-3.2 3.5-5.4 4.5-1.7.7-2.9.8-3.7.2-.7-.5-1.1-1.5-1-3-.3.2-.5.5-.8.7-.9.8-1.8 1.7-2.8 2.4-2.2 1.7-4.4 2.5-6.5 2.5h-.1c-1.9 0-3-.9-3.4-2.7v-.1l-.2.2c-.3.4-.6.8-1 1.2-.6.7-1.4 1.5-2.1 2.1-1.6 1.3-3 1.7-4.1 1.2-1.4-.6-1.3-2.2-1.1-3.5 0-.2.1-.4.1-.6 0 0 0 .1-.1.1-.6.8-1.1 1.5-1.7 2.1-1.2 1.3-2.2 2.2-3.1 2.8-1.4 1-2.8 1.3-3.7.9-.8-.4-1.2-1.2-1.3-2.3v-1.3c-.1.1-.1.2-.2.2-.5.6-.9 1.2-1.4 1.7-1.7 1.9-3.3 3.1-4.9 3.5-1.3.4-2.2.3-2.8-.3-.6-.6-.8-1.6-.5-3.1v-.2l-.4.4c-.7.7-1.4 1.4-2.2 2-3.9 3.2-7.2 4.7-10.4 4.7zm15.7-31.2c-1.4 0-2.9.4-4.7 1.2-3 1.3-5.1 3.3-6.4 5.9-1.4 2.8-1.6 4.8-.5 6.1.2.2.3.4.5.7l.4.5-.2.2c-.2.1-.3.2-.5.3-.4.2-.7.4-1.1.6-3.3 1.4-5.8 4.5-7 8.5-.6 2.2-.5 4.1.4 5.3.7.9 1.8 1.4 3.2 1.4 3.1.1 6.4-1.4 9.8-4.3.7-.6 1.4-1.3 2.1-2 .3-.3.7-.7 1.1-1l.6-.6-.2.8c0 .1-.1.3-.1.4-.1.2-.1.4-.1.6-.3 1.2-.1 2.1.3 2.6.5.4 1.3.5 2.4.1 1.6-.5 3-1.5 4.7-3.4.5-.6.9-1.1 1.4-1.7.2-.3.4-.5.7-.8l.5-.6v2.7c.1.9.4 1.6 1 1.9.8.4 2 .1 3.2-.8.9-.6 1.9-1.5 3-2.8.6-.6 1.1-1.3 1.6-2.1.3-.3.5-.7.8-1.1l.7-.9-.2 1.2c-.1.2-.1.4-.2.6-.1.4-.2.8-.3 1.1-.3 1.7-.1 2.6.7 2.9 1.2.5 2.6-.4 3.6-1.1.7-.6 1.5-1.4 2.1-2 .3-.4.7-.8 1-1.2.1-.2.3-.4.4-.5l.1-.1.2.1c.1 0 .2.1.2.2s.1.3.1.5c.3 1.5 1.2 2.3 2.9 2.3h.1c2.1 0 4.2-.8 6.2-2.4.9-.7 1.9-1.6 2.8-2.4.4-.4.8-.8 1.2-1.1l.4-.4v1c-.1 1.4.1 2.4.8 2.8.7.5 1.7.4 3.2-.2 2.2-.9 4-2.8 5.2-4.4.2-.2.4-.4.6-.7l1-1.1-.1.9c0 .2-.1.4-.1.5 0 .3-.1.5-.1.7-.1 1.2.1 2 .7 2.4.6.4 1.6.2 2.8-.5 1.1-.6 2.2-1.7 3.2-2.7l.1-.1c.5-.5.9-1 1.4-1.7.2-.3.4-.6.7-.9l.5-.6v.8c-.1 3.2 1 5.6 3 6.6 2.6 1.3 6.3.5 9.9-2.3 3.6-2.7 6.2-7.3 6-10.5 0-.6-.2-1-.5-1.1-.2-.1-.7-.1-1.7 1.1l-.2.2-.4.4c-1.9 2.3-4.1 3.5-6.6 3.9-2.1.3-3.3-.4-3.6-2.1-.4-2.2.1-4.2 1.5-6.3l.6-.6c.9-.8 2.3-1.4 2.9-.8.6.5.4 1.6-.6 2.8-.5.7-.5 1-.5 1 0 .1.2.2.5.2 1.1.1 2.2-.5 3.3-1.5 1.5-1.5 2.2-3.2 2.2-5.1 0-1.5-.7-2.2-2.2-2.3-1.8-.1-3.8.6-5.8 2.1-2.7 2-4.8 4.9-6.5 8.6-.6 1.4-1.9 2.4-3.1 2.3-.4 0-.7-.2-.9-.5-.3-.5-.3-1.2.1-2.1.3-.7.6-1.3.9-2 .3-.5.5-1.1.8-1.6l.1-.3c.5-1.1 1-2.2 1.3-3.3.1-.4.1-.8-.1-.9-.2-.1-.6-.1-1 .2-.4.3-1.4.9-2 1.8-1.3 2-2.7 4.3-4.1 6.9-.9 1.6-2 2.7-3.4 3.3-1.3.6-2.4.6-3 0-.7-.7-.7-1.9 0-3.4.2-.6.5-1.1.7-1.5.8-1.5 1.3-2 2.7-2.3.3-.1.5-.1.8-.2.3-.1.6-.1.9-.2.9-.2 1.8-1.4 2.1-2.7.1-.4 0-.5 0-.5-.1-.1-.5 0-.7 0-.1 0-.2 0-.3.1h-.2c-.1 0-.2 0-.3.1-.4.1-.8.1-1-.2-.2-.3-.1-.6.2-1.2.2-.3.3-.6.5-.9.3-.6.7-1.1.9-1.7.2-.5.1-1.2 0-1.3-.3-.3-1-.3-1.5.2-.3.2-.7.8-1 1.2-.1.1-.2.2-.3.4-.2.3-.5.7-.7 1-.1.2-.3.4-.4.7-1 1.5-2.2 2.6-3.6 3.1-.8.3-1.3.7-1.4 1 0 .2 0 .3.2.5.1.1.3.1.6.1h.5c.2 0 .4.1.5.3.1.2.1.4 0 .6-.8 1.5-2.3 4.3-3.3 6-.7 1.1-1.8 2.7-3.4 3.3l-.3.1.4-.4c-.1-.5-.2-.9-.2-1.3-.2-1-.3-1.9-.5-2.8-.5-2.2-.4-2.3 2-4.1.6-.5 1.6-1.4 1-2.2-.2-.3-.7-.6-1.1-.7-1.4-.3-3 .6-4.7 2.6-1.4 1.6-2.7 3.3-3.9 4.9-.4.5-.8 1-1.1 1.5-.5.6-.9 1.2-1.4 1.8-.4.5-.7 1-1.1 1.5-1 1.3-2.7 2.1-3.6 1.7-.3-.1-.4-.3-.5-.5-.2-.6 0-1.4.6-2.5.5-.9 1-1.7 1.5-2.6l.9-1.5c.1-.2.2-.3.3-.5.3-.6.7-1.2.9-1.8.2-.6.3-1.1.1-1.3-.2-.2-.6-.1-1.2.2-.5.3-1 .7-1.5 1.1-.7.6-1.5 1.1-2.3.4-.3-.3-.8-.4-1.2-.5-1.8 0-3.6.8-5.6 2.4-2.1 1.8-3.9 4-5.6 7.4-1 2-2.7 3.3-4.3 3.5-.5 0-.9-.1-1.1-.3-.2-.2-.3-.6-.2-1.1.1-.8.3-1.6.7-2.3 1.9-3.6 3.9-7.3 6-10.9.3-.5.6-1.1.9-1.6.3-.6.7-1.1 1-1.7.6-1.1.7-1.7.3-2-.3-.3-1.3 0-2.1.7-.4.3-.9.8-1.3 1.4l-.6.1c-.7 1.1-1.5 2.1-2.1 3.2-2.4 4.4-4.7 8.7-6.6 12.3-.6 1.2-1.4 2.2-2.4 2.8-3.1 2.2-6.1 3.1-9.2 2.5-.3 0-.5-.2-.6-.3-.4-.3-.6-.8-.6-1.4 0-1.2.8-2.5 1.8-3.2.3-.2.8-.3 1.1-.2 1.2.5 2.7.3 4.7-.6 1.4-.7 2.3-1.8 2.5-3.4.1-.5 0-.6 0-.6s-.1-.1-.5 0l-.5.2c-1 .3-2 .6-3 .8-.5.1-1.1 0-1.4-.4-.8-.8-.7-2.4.3-3.9 1-1.6 2.8-2.6 4.5-2.7.7 0 1.2.2 1.5.5.3.4.5 1 .3 1.8-.1.6 0 .9.2 1 .2.1.7 0 1.4-.7.3-.3.7-.7.9-1.1 1.5-2 2-4.4 1.3-6.1-.4-.9-1.1-1.5-2-1.6-.3.2-.6.2-1 .2zm24.9 19zm-10.2-1.8c-.3 0-.6-.1-.8-.3-.3-.2-.4-.6-.4-1.2 0-2 2-4.6 4-5.1.8-.2 1.2 0 1.5.2.2.2.5.6.4 1.4-.2 2-2.4 4.6-4.3 4.9-.2.1-.3.1-.4.1zm3.4-6.1c-.2 0-.3 0-.5.1-1.8.5-3.7 2.8-3.7 4.6 0 .4.1.6.3.8.2.1.4.2.8.1 1.7-.3 3.7-2.6 3.9-4.5 0-.3 0-.7-.3-.9-.1-.1-.3-.2-.5-.2zm11.9 3.2c-.4 0-.7-.1-.9-.3-.3-.2-.4-.4-.5-.7 0-.3.1-.6.4-1 .9-1.2 1.9-2.4 2.8-3.6l1.2-1.5.2-.2.2.2c.9 1.1.9 3.4-.1 5-.6 1-1.7 1.8-2.8 2-.2 0-.3.1-.5.1zm3.2-6.5c-.3.4-.6.8-1 1.2-1 1.2-1.9 2.4-2.8 3.6-.2.2-.3.5-.3.6 0 .1.1.2.3.4.3.2.7.2 1 .1.9-.2 1.9-.9 2.5-1.8.7-1.3.9-3.1.3-4.1z"/><path d="M69 45.1c.5-.3.9-.4 1.3-.5.4-.1.7-.1 1.1-.2.2 0 .3 0 .5-.1l.5-.1-.5-.1c-.1 0-.3 0-.4-.1-.3-.1-.7-.1-1-.2-.8-.2-1.1-.6-.9-1.4.1-.4.2-.8.3-1.3 0-.2.1-.3.1-.5 0-.1 0-.1.1-.2.1-.2.1-.5.2-.6l.2-.8-.4.7-.4.8-.2.5c-.3.6-.6 1.1-1 1.6-.5.7-1.1 1.1-1.8 1.2-.4.1-.9.2-1.3.2-.2 0-.4.1-.6.1l-.5.1.5.1h.2c.1 0 .3 0 .4.1.3 0 .6.1.9.2.7.2 1 .6.8 1.4-.1.4-.2.9-.3 1.3 0 .2-.1.3-.1.5 0 .1-.1.3-.1.4 0 .1 0 .1-.1.2l-.3.6.3-.6c.1-.2.3-.4.4-.7l.9-1.5c.4-.4.7-.8 1.2-1.1zM72.7 49.7c-.9-.1-1.1-.4-.9-1.3 0-.2.1-.4.1-.6 0-.1 0-.2.1-.3l.1-.7-.3.6c-.1.1-.1.2-.2.3l-.3.6c-.4.8-.8 1.1-1.7 1.3-.2 0-.4.1-.6.1h-.3l-.7.2.6.1c.1 0 .2 0 .3.1.2 0 .5.1.7.1.4.1.6.4.5.8 0 .3-.1.6-.1.8 0 .1 0 .3-.1.4l-.1.6.4-.8c.1-.2.2-.4.4-.7.4-.7.8-1 1.6-1.2.2 0 .5-.1.7-.1.1 0 .2 0 .4-.1l.7-.1-1-.1h-.3zM79.3 45.2c-.8-.1-1.1-.4-1-1 0-.2.1-.4.1-.6 0-.1.1-.3.1-.4l.2-.8-.3.5c-.1.1-.2.3-.2.4-.2.3-.3.6-.5.9-.3.5-.7.8-1.2.9-.3 0-.6.1-.8.1l-1 .2.6.1c.1 0 .2 0 .3.1.2 0 .5.1.7.1.5.1.7.4.6.9 0 .3-.1.5-.1.8 0 .1 0 .3-.1.4l-.1.6.3-.6c0-.1.1-.2.1-.2.1-.2.2-.3.2-.5.5-1.1 1-1.4 2.1-1.6.2 0 .4-.1.5-.1h.3l.8-.1-1.6-.1z"/></svg>