<svg version="1.1" id="_x31_" xmlns="http://www.w3.org/2000/svg" x="0" y="0" viewBox="0 0 145 145" style="enable-background:new 0 0 145 145" xml:space="preserve"><style>.st0{fill:#fff}</style><ellipse cx="33.1" cy="110.9" rx="17.9" ry="2.9"/><ellipse cx="83.9" cy="109.4" rx="17.9" ry="2.9"/><path d="m85.1 97.5-4.3-.7c.6-3.3-.5-7.9-3.2-13.2-2.1-4.2-4.4-7.3-4.4-7.4l3.5-2.6c.1.1 2.5 3.4 4.8 8 3.1 6.1 4.4 11.5 3.6 15.9z"/><path d="M88.4 98.5c-.3-1.9-2.4-3.3-4.9-2.9-2 .3-3.1 1.1-3.7 2.8-.3.9-.3 1.8-.1 2.7.3 1.2.9 2.7 2.2 3.2"/><path class="st0" d="M83.4 108.3s4 4.8 15.4-5.8c0 0 6.2-6.4 4.6-8.3l-1.5-1.1"/><path d="M86.5 109.7h-.4c-2-.1-2.9-1.1-2.9-1.2l.6-.5s.7.8 2.4.9c2.2.1 6.1-.9 12.4-6.7 2.3-2.3 5.5-6.5 4.6-7.8l-1.5-1.1.4-.6 1.6 1.2c.8.9.3 2.7-1.7 5.3-1.3 1.8-2.9 3.5-2.9 3.5-6.2 5.7-10.2 7-12.6 7zM45.9 98.7c-2.7 0-5.5-.8-8.3-2.9l2.6-3.5c1.5 1.2 7.1 4.5 13.7-1.4.2-.2.5-.4.7-.6 1.1-1.1 5-8.7 3.7-14.7l4.3-.9c1.7 8-3.2 17.3-5.1 18.9-.2.2-.4.4-.6.5-3 2.7-6.8 4.6-11 4.6zm8.7-8.4z"/><path class="st0" d="M41.3 93.8s-2.1-4.6-7.2-2.9c-4.1 1.3-5.6 5.4-3 14.1 2.1 6.9 9.6 6.9 11.5 2"/><path d="M37.5 110.8h-.2c-2.4-.1-5.4-1.6-6.6-5.7-2.6-8.3-1.5-13 3.2-14.5 5.4-1.8 7.7 3.1 7.7 3.1l-.7.3.3-.2-.3.2c-.1-.2-2-4.3-6.8-2.7-4.2 1.4-5.1 5.8-2.7 13.6 1.2 3.7 3.8 5.1 6 5.2 2.2.1 4.1-1.2 4.9-3.3l.7.3c-1 2.2-3.1 3.7-5.5 3.7z"/><path d="m41.2 108.9-.9.3c-1.4.3-5.3.6-6.6-5.1-2.1-9.3.5-13.5 3.7-13.5 2.8 0 4.9 5 4.9 5s3.9 10.8-1.1 13.3zM83.6 108.8s-5.8-4.4-.4-9c0 0 2.2-1.9 4.3-2 0 0 8.7-13.8 16.4-3.6-.1 0-11.8 3.5-20.3 14.6zM113.8 88.1c-.8.1-1.6.2-2.4.4-.7.1-1.4.3-1.9.8-.6.5-.9 1.2-1 2l-.6 3.6c0-.3-.1-.7-.1-1-.2-1-.3-1.9-.5-2.9-.3-1.4-1.2-2.2-2.5-2.5-.8-.2-1.5-.2-2.3-.4-.1 0-.3 0-.4-.1 1-.2 1.9-.3 2.9-.5 1.1-.3 1.9-1 2.2-2.1.3-1 .4-2.1.6-3.1.1-.3.1-.7.2-1 0 .3.1.6.1.9.2 1 .3 2 .5 2.9.3 1.4 1.3 2.3 2.7 2.5.8.3 1.7.4 2.5.5zM113.3 91.5c.1.5.2 1 .2 1.4.3 1.5.8 2 2.3 2.2.4 0 .7.1 1.2.1-.6.1-1.1.1-1.6.2-1.2.2-1.7.8-1.9 1.9l-.3 1.5c-.1-.7-.2-1.3-.4-1.9-.2-.8-.7-1.3-1.5-1.5l-1.8-.3c.4-.1.9-.1 1.3-.2 1.3-.2 1.8-.7 2-2.1.4-.3.5-.8.5-1.3zM107.4 77.7l-80.8 4.7c-2.5.1-4.5-1.8-4.5-4.2v-33c0-2.5 2-4.6 4.5-4.7l80.8-4.7c1.1-.1 2.2.3 3.1 1L128 52.4c1.9 1.7 1.9 4.6 0 6.5l-17.6 17.4c-.8.9-1.9 1.4-3 1.4z"/><path d="M26.3 82.8c-1.2 0-2.3-.4-3.2-1.2-.9-.9-1.4-2.1-1.4-3.3v-33c0-2.6 2.2-4.9 4.8-5.1l80.8-4.7c1.2-.1 2.4.3 3.3 1.1l17.6 15.6c.9.8 1.5 2 1.5 3.3 0 1.4-.5 2.7-1.5 3.7l-17.6 17.4c-.9.9-2.1 1.4-3.3 1.5l-80.8 4.7h-.2zm81.3-46.6h-.2l-80.8 4.7c-2.3.1-4.1 2.1-4.1 4.3v33c0 1.1.4 2.1 1.2 2.8.8.7 1.8 1.1 2.9 1l80.8-4.7c1-.1 2-.5 2.8-1.3l17.6-17.4c.9-.9 1.3-2 1.3-3.2 0-1.1-.5-2.1-1.3-2.8L110.2 37c-.7-.5-1.6-.8-2.6-.8z"/><path d="M104.8 73.8 24 78.5c-2.5.1-4.5-1.8-4.5-4.2v-33c0-2.5 2-4.6 4.5-4.7l80.8-4.7c1.1-.1 2.2.3 3.1 1l17.6 15.6c1.9 1.7 1.9 4.6 0 6.5l-17.6 17.4c-.9.8-2 1.3-3.1 1.4z" style="fill:#f5becf"/><path d="M23.8 79.2c-1.3 0-2.4-.5-3.4-1.3-1-.9-1.5-2.2-1.5-3.5v-33c0-2.8 2.3-5.2 5.1-5.3l80.8-4.7c1.3-.1 2.6.4 3.5 1.2L125.8 48c1 .9 1.6 2.1 1.6 3.5s-.5 2.9-1.6 3.9l-17.6 17.4c-.9.9-2.2 1.5-3.5 1.6L24 79.2h-.2zM105 32.5h-.2L24 37.3c-2.1.1-3.9 1.9-3.9 4.1v33c0 1 .4 1.9 1.1 2.6.7.7 1.7 1 2.7 1l80.8-4.7c1-.1 1.9-.5 2.6-1.2L125 54.5c.8-.8 1.2-1.9 1.2-3 0-1-.5-1.9-1.2-2.6l-17.6-15.6c-.6-.5-1.5-.8-2.4-.8zM115.4 90c.4-.1.7-.1 1.1-.2.5-.1.8-.4.9-.9.1-.4.2-.8.3-1.3 0 .2.1.4.1.6 0 .2.1.4.1.6.2.7.8 1 1.4 1 .2 0 .5.1.8.1-.3 0-.5.1-.8.1-1.1.2-1.4.5-1.5 1.6 0 .2-.1.4-.1.7-.1-.4-.1-.8-.2-1.2-.1-.5-.5-.9-1-1-.4 0-.8 0-1.1-.1z"/><path class="st0" d="M84 42.5 81.4 40l-16.7 1-.3 2.5-2.4-2.4-9.2.5c.1 1 .2 2.2.1 3.8 0 1.6-.1 3.1-.3 4.6V50.6l-1.3-6.3-2.6-2.6-5.8.3-1.4 8.3c-.1-.5-.1-1.1-.1-1.6-.1-1.6-.1-2.9-.1-3.9l-2.6-2.6-9.2.5c.5 1.3 1 2.9 1.6 4.9.5 2 .9 3.9 1.3 5.7v.2l.7 4c.1.3.1.5.1.8 0 .3.1.5.1.8.3 1.7.4 3.4.6 5.1.1 1.7.1 3.1.1 4.3l2.6 2.5v.1l10-.6 1.2-8.3 1 5.5 2.5 2.5.1-.1v.1l10-.6c-.1-1.1-.2-2.5-.1-4.1 0-1.7.1-3.4.3-5 0-.3 0-.6.1-.9 0-.3.1-.6.1-.9l.5-4.1v-.2c.2-1.8.6-3.7 1-5.8.3-1.3.6-2.5.9-3.6l-.5 4.2 2.6 2.6.1-.1c.6-.4 1.2-.7 1.9-.9.4-.1.9-.2 1.4-.3l.1 5c0 1.9 0 3.8-.2 5.9-.1 2.1-.3 3.8-.6 5.1l2.6 2.6 9.2-.5c-.3-1.3-.6-3-.8-5-.2-2-.4-4-.4-5.9l-.2-7.7 1.4-.1c.9 0 1.7 0 2.4.1.8.1 1.4.4 2 .7L84 42.5z"/><path class="st0" d="M102.8 56.4c-.5.4-1.2.7-2.2 1-.9.3-2.4.5-4.3.6h-.8v-1.7l2.8-.2c1.8-.1 3.2-.1 4.2-.1l-.1-4h-.1v-.1l-2.6-2.5c-1 .2-2.4.3-4.2.4h-.3v-.9l4-.2c1.5-.1 2.6-.1 3.4 0 .8.1 1.4.3 1.8.6l-1.2-8.1h-.1l-2.6-2.5-16.3.9c.3 1.3.6 3 .8 5.1.2 2.1.4 4 .4 5.8l.1 4.1c0 1.9 0 3.8-.2 5.9-.1 2.1-.3 3.8-.6 5.1l2.6 2.5.1-.1v.2l16.9-1 1-8.4-2.5-2.4z"/><path d="M33.9 68.7c.1-1.1.1-2.6-.1-4.3-.1-1.7-.3-3.4-.6-5.1 0-.3-.1-.5-.1-.8 0-.3-.1-.5-.1-.8l-.7-4v-.2c-.3-1.8-.7-3.7-1.3-5.7-.5-2-1-3.6-1.6-4.9l9.2-.5c-.1 1 0 2.3.1 3.9s.3 3.2.5 4.8l.4 2.5c0 .1 0 .3.1.4 0 .1 0 .3.1.4.1.4.1.7.2 1.1 0 .4.1.8.1 1.2h.4l2.4-14.6 5.8-.3 3 14.3h.4c0-.4.1-.8.1-1.2 0-.4.1-.8.1-1.2v-.4c0-.1 0-.3.1-.4l.2-2.5V50.1c.1-1.5.2-3.1.3-4.6 0-1.6 0-2.8-.1-3.8l9.2-.5c-.4 1.3-.9 3-1.3 5.1-.4 2-.8 4-1 5.8v.2l-.5 4.1c0 .3-.1.6-.1.9 0 .3-.1.6-.1.9-.2 1.7-.3 3.4-.3 5 0 1.7 0 3 .1 4.1l-10 .6-2.5-13.2h-.4l-2 13.4-10 .6zM69.1 66.6c.3-1.3.5-3 .6-5.1.1-2.1.2-4 .2-5.9l-.2-7.7-1.6.1c-.9.1-1.7.2-2.4.4s-1.4.5-2 .9l1-8.4 16.7-1 1.3 8.3c-.6-.3-1.2-.5-2-.7-.8-.1-1.6-.2-2.4-.1l-1.4.1.2 7.7c0 1.9.2 3.8.4 5.9.2 2 .5 3.7.8 5l-9.2.5zM84.9 65.7c.3-1.4.5-3.1.6-5.1.1-2.1.2-4 .2-5.9l-.1-4.1c0-1.8-.2-3.8-.4-5.8-.2-2.1-.5-3.7-.8-5.1l16.3-.9 1.2 8.1c-.4-.3-1-.5-1.8-.6-.8-.1-1.9-.1-3.4 0l-4 .2.1 3.6 2.8-.2c1.8-.1 3.2-.2 4.2-.4l.1 4c-1-.1-2.4 0-4.2.1l-2.8.2.1 4.4 3.4-.2c1.9-.1 3.4-.3 4.3-.6.9-.3 1.7-.6 2.2-1l-1 8.4-17 .9z"/></svg>