<svg version="1.1" id="_x33_" xmlns="http://www.w3.org/2000/svg" x="0" y="0" viewBox="0 0 145 145" style="enable-background:new 0 0 145 145" xml:space="preserve"><style>.st1{fill:#9bc2cc}.st2{fill:#f96e99}.st3{fill:#bcaae2}</style><path d="m139.2 62.2-.3-.3c.6-1.5.8-3.1.8-4.2 0-1.8-.2-3.3-.8-4.8-.3-.7-.7-1.4-1.3-1.9l-6.7-6.1c-.9-.8-2.1-1.3-3.3-1.3H54.5c-1.8 0-3.5 1-4.3 2.6l-1.4-1.3c-.9-.8-2.1-1.3-3.3-1.3H9.1c-1.6 0-3.1.8-4 2.1-.9 1.3-1.1 3-.5 4.5.6 1.5 1.3 4.5 1.7 6.9l.4 3c.3 2.5.5 5.4.3 7-.1 1.5.5 3 1.6 4l6.7 6.1c.5.4 1 .7 1.6 1v4c0 2.4-.3 5.3-.6 6.9-.4 1.7.2 3.5 1.5 4.7l6.7 6.1c.9.8 2.1 1.3 3.3 1.3h81.7c1.3 0 2.4-.5 3.3-1.3 1.9 1.1 4.1 1.7 6.5 1.7 2.6 0 4.7-.4 7.1-1.2 1.9-.7 3.2-2.5 3.2-4.6v-6.1c0-1.3-.5-2.5-1.3-3.4.4-.7.6-1.5.6-2.3v-5.6c.2-.1.3-.1.4-.2.6.3 1.2.5 1.9.6.1 0 .2 0 .3.1.6.1 1.2.2 1.9.2 3 0 5.9-1.8 7.1-4.4.3-.6.5-1.4.5-2.1v-6.5c-.2-1.7-.7-3-1.8-3.9z" style="fill:#f2e2c2"/><path d="M28.5 88.1v-3c0-2.6-.3-6-.8-8h11.9l.8 5.9c-.6-.5-1.7-.7-3.8-.7h-2.9V85h2.1c1.3 0 2.3 0 3.1-.1v2.9c-.8-.1-1.8-.1-3.1-.1h-2.1v3.2h2.5c3.1 0 4.1-.4 4.7-.8l-.9 6.1H27.8c.4-2.1.7-5.4.7-8.1zM46.5 95.4c-1.9 0-3.2.7-3.8 1.1.4-2 .7-5.7.7-8.3v-3c0-2.6-.3-6-.7-8h6.7c-.4 2-.7 5.3-.7 7.9v5.7h3.2c1.5 0 2.9-.4 3.7-.9v5.9s-.9.6-2.2.6c-2.6.1-3.8-1-6.9-1zM58.1 88.1l.6-3c.5-2.6.9-6 .9-8h9.5c0 2 .4 5.3.9 8l.6 3c.5 2.6 1.5 6 2.4 8h-6.7c0-1.4-.1-3.4-.4-5.3l-.1-.3h-2.9l-.1.4c-.3 1.9-.4 3.9-.4 5.3h-6.7c.9-2.1 1.8-5.4 2.4-8.1zm7.3 0-.4-1.5c-.3-1.4-.4-2.5-.5-3.9h-.3c-.1 1.4-.2 2.5-.5 3.9l-.4 1.5h2.1zM73.1 95l.2-6.1c1.6 1.5 4 2.3 6.1 2.3 1.2 0 2.4-.5 2.4-1.4 0-2.4-8.6-1.8-8.6-7.5 0-3.6 3.2-5.5 7.3-5.5 2.1 0 4.2.6 5.4 1.1v5.9c-1.2-1.1-3.2-1.8-5-1.8-1.3 0-2.4.5-2.4 1.4 0 2.6 8.7 1.8 8.7 7.7 0 3.6-3.3 5.3-7.4 5.3-2.2.1-5.1-.6-6.7-1.4zM91.8 88.1v-5.6h-1.2c-1.3 0-2.4.2-3.2.8l.8-6.1h12.2l.8 6.1c-.8-.5-1.9-.8-3.2-.8h-1v5.6c0 2.6.3 6 .7 8H91c.5-2 .8-5.3.8-8zM103.5 88.1v-3c0-2.6-.3-6-.7-8h6.7c-.5 2-.7 5.3-.7 8v3c0 2.6.3 6 .7 8h-6.7c.4-2 .7-5.3.7-8zM110.9 86.7c0-6.9 4.2-9.8 8.5-9.8 1.9 0 3.6.4 4.6.9v5.9c-.8-.8-2.2-1.4-3.7-1.4-2.2 0-3.9 1-3.9 4.4 0 3.4 1.8 4.3 4 4.3 1.8 0 3.2-.6 4.3-1.5v6.1c-1.5.6-3.1.9-5.4.9-4.2 0-8.4-2.9-8.4-9.8zM18.2 65.6l-.4-3c-.4-2.6-1.2-6-1.9-8h6.7c-.1 1.6 0 4.1.3 6.4l.2 1.8c.1.9.2 1.5.3 2.4h.3l2-10.5h4.2l2 10.5h.3c.1-.8.2-1.5.3-2.4l.2-1.8c.3-2.2.4-4.8.3-6.4h6.7c-.7 2-1.5 5.3-1.9 8l-.4 3c-.4 2.6-.6 6-.5 8h-7.3l-1.7-9.7h-.3L26 73.6h-7.3c.1-2-.1-5.4-.5-8zM41.1 65.6v-3c0-2.6-.3-6-.8-8h11.9l.8 5.9c-.6-.5-1.7-.7-3.8-.7h-2.9v2.6h2.1c1.3 0 2.3 0 3.1-.1v2.9c-.8-.1-1.8-.1-3.1-.1h-2.1v3.2h2.5c3.1 0 4.1-.4 4.7-.8l-.9 6.1H40.4c.4-2 .7-5.4.7-8zM64.8 65.6V60h-1.2c-1.3 0-2.4.2-3.2.8l.8-6.1h12.2l.8 6.1c-.8-.5-1.9-.8-3.2-.8h-1.1v5.6c0 2.6.3 6 .7 8h-6.7c.6-2 .9-5.4.9-8zM76.5 65.6v-3c0-2.6-.3-6-.7-8h6.7c-.5 2-.7 5.3-.7 8v.1h3.5v-.1c0-2.6-.3-6-.7-8h6.7c-.5 2-.7 5.3-.7 8v3c0 2.6.3 6 .7 8h-6.7c.5-2 .7-5.3.7-8v-.3h-3.5v.3c0 2.6.3 6 .7 8h-6.7c.4-2 .7-5.4.7-8zM94.1 65.6v-3c0-2.6-.3-6-.7-8h6.7c-.5 2-.7 5.3-.7 8v3c0 2.6.3 6 .7 8h-6.7c.4-2 .7-5.4.7-8zM102.9 65.6v-3c0-2.6-.3-6-.8-8h5.8l4.1 8.6h.3v-1.5c-.1-2.4-.4-5.6-.7-7.2h6.7c-.5 2-.7 5.3-.7 8v10.9h-4.9l-4.2-8.9h-.3v.7c0 2.7.3 6.4.7 8.2h-6.7c.4-1.8.7-5.2.7-7.8zM127.1 63.9c-.3 0-.5.2-.7.3v1.4c0 2.6.3 6 .7 8h-6.7c.5-2 .7-5.3.7-8v-3c0-2.6-.3-6-.7-8h6.7c-.4 1.8-.7 4.7-.7 7.2v.1h.5c1.3 0 2.2-1.1 2.2-4.3 0-1.3-.2-2.1-.6-3h5.8c.3.9.5 1.7.5 3.1 0 3.2-1.6 5-5.7 5h-1v.3h.4c3.6 0 2.7 4.2 5.1 4.2 1.2 0 1.9-.5 2.4-1.5v6.5c-.4.9-1.5 1.6-2.7 1.6-6.5.1-2.9-9.9-6.2-9.9z"/><path d="m11.9 67.5 6.7 6.1 2.5-6.1M15.8 48.5l6.7 6.1-5 6.7-2.7-2.7z"/><path d="m29.8 54.6-6.7-6.1-1.4 8 2.5 4z"/><path d="m32.8 48.5 6.8 6.1-8.4 14.2-3.5-14.2z"/><path d="m45.5 48.5 6.8 6.1-2.6 3.1-6.4 3.6-.9 2-4.9-1.6.3-10.6zM33.6 67.4l6.8 6.2 5.9-5.3-.9-1.9z"/><path d="m44.7 56.3 6.8 6-.3 2.1-5.5-.3-1.6-5.6z"/><path d="m46.8 61.4 6.8 6.1-2.6 2.9-4.7.4-4.4-6.4zM57.3 67.5l6.8 6.1 4.7-7.9-.8-10.1-6.1 4.5z"/><path d="m60.4 60.7-6.7-6.1 4.3-3.2 5.3 1.4.9 7.9"/><path d="m66.8 48.5 6.7 6.1-5.5 2-5-1-1.5-3.6z"/><path d="m75.7 48.5 6.8 6.1-6.8 19-6.7-6.1 4.1-12.7M84.5 48.5l6.7 6.1-4.4 9-4.3-.3v-13z"/><path d="m77.8 67.5 6.7 6.1 3.8-5.5-.5-3.5-4.3-1.3z"/><path d="m86.6 67.5 6.7 6.1 3.7-4.1 3.1-14.9-6.8-6.1-1.8 5.6-5.2 14"/><path d="m101.3 48.6 6.7 6.1-5.8 18.9-6.8-6.1 5.2-12.6 5.1 6.6M111.6 48.5l6.7 6.1-5.6 11.7-2.9-6.2v-10zM105.9 67.5l6.8 6.1 1.4-3.1-3-5.2-4.4.2zM120.4 48.5l6.8 6.1-6.1 2.6-3-1.1z"/><path d="m113.7 67.5 6.7 6.1 4.9-2.1-2.7-16.2-4.5 2.3zM127.6 48.5l6.7 6.1-5.2 7.2-4.4.3-2.1-7.3z"/><path d="m129.2 59.6 6.8 6.2-3.7 8-8.6-7.1zM22.8 67.3l5.4 7.8 13.7-1.7-14.4-9.6z"/><path d="m21.1 90 6.7 6.1 5-17.9.8-2-7.7-2.6z"/><path d="m32.8 71.1 6.9 4.3-6.1 3.9-2.9-2.2zM42.6 71.1l6.8 6.1-5 8.4-5.5-.7zM34.3 84l6.7 6.1-5.1 3-6.2-2.5z"/><path d="m35.9 90.3 6.8 6.2 3.2-7.8-5.5-1.9z"/><path d="m48.8 83.8 6.8 6.1-3.1 3.5-7.2-.6-.6-3.7z"/><path d="m48.9 90.1 6.7 6h6.8l-6.8-6.2-3.5-1zM59.5 90l6.8 6.1 2.7-4.9.1-14-6.8-6.1-1.7 8.1.6 10.3"/><path d="m59.3 75.2.5 15.4s-4 2.6-4.2 2.4c-.2-.2-3.2-5.5-3.2-5.5l5.4-14.7 1.6 3M66.3 89l6.8 6 7.8-.6 3.4-3.7-2.5-2.6-4.3-1.9zM85.8 83.9l-6.7-6.1v-5.9l8 6-1.3 3.2"/><path d="m73.5 80.3 1.8-.2 4.8-.5-1-1.8-2.1-3-8-.7.1 3.1M67.2 78.9l7.3 6.8.8-2.7-4.4-3.2zM84.3 90l6.7 6.1h6.8L91 90z"/><path d="m90.3 76.4 6.4 6.6-4.6 9.8-3.7-4.2-.4-15"/><path d="m94.6 77 5.7 6.6-9.9-3-1.5-5.2 4.4.4zM96.1 90l6.6 6.1h6.8l-6.8-6.1z"/><path d="m102.6 71.1 9 5-7.2 16.6-5.5-5.1zM93.7 71.1l4.1 7.3-3.6.3zM117.2 71.7l6.8 6.1v5.9l-6.8-6z"/><path d="m119 77.2-4.4-2.7-3.7.4-3.6 1.9.5 8.2 2.7 1.1 7.5-6.6-1.4-4.6M106.6 87.9l7.1 6.4 11 1.2-6.7-6.1-4.1-.2"/><path d="m117.8 83.5 6.9 5.9-2.1 3h-7.7l-.8-4.5zM79.1 81.8l7.2 6.3-4.6 1.8-5-6z"/><path class="st1" d="M21.8 82.1v-3c0-2.6-.3-6-.8-8h11.9l.8 5.9c-.6-.5-1.7-.7-3.8-.7H27v2.6h2.1c1.3 0 2.3 0 3.1-.1v2.9c-.8-.1-1.8-.1-3.1-.1H27v3.2h2.5c3.1 0 4.1-.4 4.7-.8l-.8 6H21.1c.4-1.9.7-5.3.7-7.9zM39.8 89.3c-1.9 0-3.2.7-3.8 1.1.4-2 .7-5.7.7-8.3v-3c0-2.6-.3-6-.7-8h6.7c-.4 2-.7 5.3-.7 7.9v5.7h3.2c1.5 0 2.9-.4 3.7-.9v5.9s-.9.6-2.2.6c-2.7.1-3.8-1-6.9-1zM51.4 82.1l.6-3c.5-2.6.9-6 .9-8h9.5c0 2 .4 5.3.9 8l.6 3c.5 2.6 1.5 6 2.4 8h-6.7c0-1.4-.1-3.4-.4-5.3l-.1-.3h-2.9l-.1.4c-.3 1.9-.4 3.9-.4 5.3H49c.8-2.1 1.8-5.5 2.4-8.1zm7.3-.1-.4-1.5c-.3-1.4-.4-2.5-.5-3.9h-.3c-.1 1.4-.2 2.5-.5 3.9l-.5 1.5h2.2zM66.3 88.9l.2-6.1c1.6 1.5 4 2.3 6.1 2.3 1.2 0 2.4-.5 2.4-1.4 0-2.4-8.6-1.8-8.6-7.5 0-3.6 3.2-5.5 7.3-5.5 2.1 0 4.2.6 5.4 1.1v5.9c-1.1-1-3.1-1.7-5-1.7-1.3 0-2.4.5-2.4 1.4 0 2.6 8.7 1.8 8.7 7.7 0 3.6-3.3 5.3-7.4 5.3-2.1 0-5-.7-6.7-1.5zM85.1 82.1v-5.6h-1.2c-1.3 0-2.4.2-3.2.8l.8-6.1h12.2l.8 6.1c-.8-.5-1.9-.8-3.2-.8h-1.1v5.6c0 2.6.3 6 .7 8h-6.7c.6-2 .9-5.4.9-8zM96.7 82.1v-3c0-2.6-.3-6-.7-8h6.7c-.5 2-.7 5.3-.7 8v3c0 2.6.3 6 .7 8H96c.5-2 .7-5.4.7-8zM104.2 80.6c0-6.9 4.2-9.8 8.5-9.8 1.9 0 3.6.4 4.6.9v5.9c-.8-.8-2.2-1.4-3.7-1.4-2.2 0-3.9 1-3.9 4.4 0 3.4 1.8 4.3 4 4.3 1.8 0 3.2-.6 4.3-1.5v6.1c-1.5.6-3.1.9-5.4.9-4.3 0-8.4-2.9-8.4-9.8z"/><path class="st2" d="m11.4 59.5-.4-3c-.4-2.6-1.2-6-1.9-8h6.7c-.1 1.6 0 4.1.3 6.4l.2 1.8c.1.9.2 1.5.3 2.4h.3l2-10.5h4.2l2 10.5h.3c.1-.8.2-1.5.3-2.4l.2-1.8c.3-2.2.4-4.8.3-6.4h6.7c-.7 2-1.5 5.3-1.9 8l-.4 3c-.4 2.6-.6 6-.5 8h-7.3l-1.7-9.7h-.3l-1.6 9.7h-7.3c.2-2-.1-5.4-.5-8zM34.4 59.5v-3c0-2.6-.3-6-.8-8h11.9l.8 5.9c-.6-.5-1.7-.7-3.8-.7h-2.9v2.6h2.1c1.3 0 2.3 0 3.1-.1v2.9c-.8 0-1.8-.1-3.1-.1h-2.1v3.2h2.5c3.1 0 4.1-.4 4.7-.8l-.9 6.1H33.6c.5-2 .8-5.4.8-8z"/><path class="st3" d="M58.1 59.5v-5.6h-1.2c-1.3 0-2.4.2-3.2.8l.8-6.1h12.2l.8 6.1c-.8-.5-1.9-.8-3.2-.8h-1.1v5.6c0 2.6.3 6 .7 8h-6.7c.6-2 .9-5.4.9-8zM69.7 59.5v-3c0-2.6-.3-6-.7-8h6.7c-.5 2-.7 5.3-.7 8v.1h3.5v-.1c0-2.6-.3-6-.7-8h6.7c-.5 2-.7 5.3-.7 8v3c0 2.6.3 6 .7 8h-6.7c.5-2 .7-5.3.7-8v-.3H75v.3c0 2.6.3 6 .7 8H69c.5-2 .7-5.4.7-8zM87.3 59.5v-3c0-2.6-.3-6-.7-8h6.7c-.5 2-.7 5.3-.7 8v3c0 2.6.3 6 .7 8h-6.7c.5-2 .7-5.4.7-8zM96.2 59.5v-3c0-2.6-.3-6-.8-8h5.8l4.1 8.6h.3v-1.5c-.1-2.4-.4-5.6-.7-7.2h6.7c-.5 2-.7 5.3-.7 8v10.9H106l-4.2-8.9h-.3v.7c0 2.7.3 6.4.7 8.2h-6.7c.4-1.8.7-5.2.7-7.8zM120.4 57.8c-.3 0-.5.2-.7.3v1.4c0 2.6.3 6 .7 8h-6.7c.5-2 .7-5.3.7-8v-3c0-2.6-.3-6-.7-8h6.7c-.4 1.8-.7 4.7-.7 7.2v.1h.5c1.3 0 2.2-1.1 2.2-4.3 0-1.3-.2-2.1-.6-3h5.8c.3.9.5 1.7.5 3.1 0 3.2-1.6 5-5.7 5h-1v.3h.4c3.6 0 2.7 4.2 5.1 4.2 1.2 0 1.9-.5 2.4-1.5v6.5c-.4.9-1.5 1.6-2.7 1.6-6.6.1-3-9.9-6.2-9.9z"/><path d="m32.6 71.5.7 4.9c-.7-.3-1.7-.4-3.3-.4h-3.4v3.4h2.5c1.2 0 2.1 0 2.7-.1v2.1c-.6-.1-1.5-.1-2.7-.1h-2.5v4h2.9c2.3 0 3.5-.2 4.3-.5l-.8 5.1H21.5c.4-2 .7-5 .7-7.6v-3c0-2.6-.3-5.6-.7-7.6h11.1m.3-.6H21.1c.5 2 .8 5.3.8 8v3c0 2.6-.3 6-.8 8h12.3l.9-6.1c-.6.4-1.7.8-4.7.8H27v-3.2h2.1c1.3 0 2.3 0 3.1.1v-2.9c-.8.1-1.8.1-3.1.1H27v-2.6h2.9c2.1 0 3.2.2 3.8.7l-.8-5.9zM42.2 71.5c-.4 2-.7 5-.7 7.6V85.2h3.6c1.3 0 2.5-.3 3.4-.7v5.1c-.3.2-1 .5-1.8.5-1.2 0-2.1-.2-3.1-.5-1.1-.3-2.2-.6-3.8-.6-1.5 0-2.6.4-3.3.7.3-2 .6-5.2.6-7.6v-3c0-2.5-.3-5.6-.7-7.6h5.8m.5-.4H36c.4 2 .7 5.3.7 8v3c0 2.6-.3 6.3-.7 8.3.6-.4 1.9-1.1 3.8-1.1 3.1 0 4.3 1.1 6.9 1.1 1.2 0 2.2-.6 2.2-.6v-5.9c-.8.6-2.2.9-3.7.9H42V79c-.1-2.6.2-5.9.7-7.9zM62 71.5c0 2 .4 5.1.9 7.7l.6 3c.5 2.6 1.4 5.6 2.2 7.6h-5.8c0-1.3-.2-3.1-.4-5l-.1-.3v-.3H55.9v.3l-.1.4c-.3 1.9-.4 3.7-.4 5h-5.8c.8-1.9 1.7-4.9 2.2-7.6l.6-3c.5-2.6.9-5.7.9-7.7H62m-5.4 8.8-.4 1.5-.1.4h3.1l-.2-.4-.4-1.5c-.3-1.1-.4-2.1-.5-3.3 0-.2 0-.4-.1-.5v-.3H57.1v.3c0 .3 0 .5-.1.8-.1 1-.2 1.9-.4 3m5.7-9.3h-9.5c0 2-.4 5.3-.9 8l-.6 3c-.5 2.6-1.5 6-2.4 8h6.7c0-1.4.1-3.3.4-5.3l.1-.4H59l.1.3c.3 1.9.4 3.9.4 5.3h6.7c-.9-2-1.8-5.3-2.4-8l-.6-3c-.5-2.6-.9-5.9-.9-7.9zM56.5 82l.4-1.5c.3-1.4.4-2.5.5-3.9h.3c.1 1.4.2 2.5.5 3.9l.4 1.5h-2.1zM73.7 71.1c2 0 3.9.5 5.1 1V77c-1.2-.8-3-1.4-4.6-1.4-1.6 0-2.8.7-2.8 1.7 0 1.3 1.5 1.8 3.3 2.4 2.5.9 5.4 1.9 5.4 5.2 0 3.1-2.6 5-7.1 5-1.9 0-4.6-.6-6.3-1.3l.1-5.1c1.5 1.2 3.7 1.9 5.8 1.9 1.6 0 2.8-.7 2.8-1.8 0-1.2-1.5-1.7-3.2-2.3-2.4-.9-5.4-1.9-5.4-5.2 0-1.6.7-2.9 2-3.8 1.1-.7 2.9-1.2 4.9-1.2m0-.3c-4.2 0-7.3 1.8-7.3 5.5 0 5.8 8.6 5.1 8.6 7.5 0 .9-1.2 1.4-2.4 1.4-2.1 0-4.5-.8-6.1-2.3l-.2 6.1c1.7.8 4.5 1.5 6.6 1.5 4.2 0 7.4-1.7 7.4-5.3 0-5.9-8.7-5.1-8.7-7.7 0-.9 1.1-1.4 2.4-1.4 1.8 0 3.8.7 5 1.8V72c-1.1-.6-3.2-1.2-5.3-1.2zM93.4 71.5l.7 5.1c-.8-.3-1.7-.5-2.8-.5H90v6c0 2.7.3 5.7.6 7.6h-5.9c.4-2 .7-5 .7-7.6v-6h-1.6c-1.1 0-2 .2-2.8.5l.7-5.1h11.7m.3-.4H81.5l-.8 6.1c.9-.5 1.9-.8 3.2-.8h1.2V82c0 2.6-.3 6-.8 8H91c-.5-2-.7-5.3-.7-8v-5.6h1.1c1.3 0 2.4.3 3.2.8l-.9-6.1zM102.3 71.5c-.4 1.9-.6 5-.6 7.6v3c0 2.7.3 5.7.6 7.6h-5.9c.4-1.9.6-5 .6-7.6v-3c0-2.7-.3-5.7-.6-7.6h5.9m.4-.4H96c.5 2 .7 5.3.7 8v3c0 2.6-.3 6-.7 8h6.7c-.5-2-.7-5.3-.7-8v-3c0-2.7.3-6 .7-8zM112.7 71.1c1.7 0 3.2.3 4.2.8v5c-.9-.6-2.2-1-3.3-1-2.8 0-4.2 1.6-4.2 4.7s1.5 4.7 4.3 4.7c1.5 0 2.8-.4 3.9-1.2v5.1c-1.2.4-2.8.8-5.1.8-2.1 0-4.1-.8-5.5-2.2-1.6-1.7-2.5-4.2-2.5-7.3.1-6.9 4.4-9.4 8.2-9.4m0-.3c-4.2 0-8.5 2.9-8.5 9.8s4.1 9.8 8.3 9.8c2.3 0 3.9-.4 5.4-.9v-6.1c-1.1.9-2.5 1.5-4.3 1.5-2.2 0-4-1-4-4.3 0-3.4 1.6-4.4 3.9-4.4 1.4 0 2.9.6 3.7 1.4v-5.9c-.9-.6-2.6-.9-4.5-.9zM32.3 48.9c-.7 2-1.4 5-1.8 7.6l-.4 3c-.4 2.6-.6 5.7-.5 7.7H23l-1.6-9.4-.1-.3H20.4v.3l-1.6 9.4h-6.6c.1-2-.1-5.1-.5-7.7l-.4-3c-.4-2.6-1.1-5.6-1.8-7.6h5.8c-.1 1.5 0 3.7.3 6l.2 1.8c.1.9.2 1.5.3 2.3v.3H17l.1-.3L19 48.7h3.6L24.5 59l.1.3H25.5V59c.1-.7.1-1.2.2-1.9l.1-.5.2-1.8c.3-2.3.4-4.6.3-6h6m.5-.3h-6.7c.1 1.6 0 4.1-.3 6.4l-.2 1.8c-.1.9-.2 1.5-.3 2.4H25l-2-10.5h-4.2l-2 10.5h-.3c-.1-.8-.1-1.5-.3-2.4l-.2-1.8c-.3-2.2-.4-4.8-.3-6.4H9.1c.8 2 1.5 5.3 1.9 8l.4 3c.4 2.6.6 6 .5 8h7.3l1.6-9.7h.3l1.7 9.7H30c-.2-2 .1-5.4.5-8l.4-3c.4-2.6 1.2-6 1.9-8zM45.2 48.9l.7 4.9c-.7-.3-1.7-.4-3.3-.4h-3.3v3.4h2.5c1.2 0 2.1 0 2.7-.1v2.1c-.6-.1-1.5-.1-2.7-.1h-2.5v3.9h2.9c2.3 0 3.5-.2 4.3-.5l-.8 5.1H34.1c.4-2 .7-5 .7-7.6v-3c0-2.6-.3-5.6-.7-7.6h11.1m.3-.5H33.6c.5 2 .8 5.3.8 8v3c0 2.6-.3 6-.8 8h12.3l.9-6.1c-.6.4-1.7.8-4.7.8h-2.5V59h2.1c1.3 0 2.3 0 3.1.1v-2.9c-.8.1-1.8.1-3.1.1h-2.1v-2.6h2.9c2.1 0 3.2.2 3.8.7l-.8-5.9zM66.5 48.9l.7 5.1c-.8-.3-1.7-.5-2.8-.5H63v6c0 2.7.3 5.7.6 7.6h-5.9c.4-2 .7-5 .7-7.6v-6h-1.6c-1.1 0-2 .2-2.8.5l.7-5.1h11.8m.3-.4H54.5l-.8 6.1c.9-.5 1.9-.8 3.2-.8h1.2v5.6c0 2.6-.3 6-.8 8H64c-.5-2-.7-5.3-.7-8v-5.6h1.1c1.3 0 2.4.3 3.2.8l-.8-6.1zM84.1 48.9c-.4 1.9-.6 5-.6 7.6v3c0 2.7.3 5.7.6 7.6h-5.9c.4-1.9.6-5 .6-7.6v-.7h-4.2v.7c0 2.7.3 5.7.6 7.6h-5.9c.4-1.9.6-5 .6-7.6v-3c0-2.7-.3-5.7-.6-7.6h5.9c-.4 1.9-.6 5-.6 7.6v.5h4.3v-.5c0-2.7-.3-5.7-.6-7.6h5.8m.4-.4h-6.7c.5 2 .7 5.3.7 8v.1H75v-.1c0-2.6.3-6 .7-8H69c.5 2 .7 5.3.7 8v3c0 2.6-.3 6-.7 8h6.7c-.5-2-.7-5.3-.7-8v-.3h3.5v.3c0 2.6-.3 6-.7 8h6.7c-.5-2-.7-5.3-.7-8v-3c0-2.6.2-6 .7-8zM92.9 48.9c-.4 1.9-.6 5-.6 7.6v3c0 2.7.3 5.7.6 7.6H87c.4-1.9.6-5 .6-7.6v-3c0-2.7-.3-5.7-.6-7.6h5.9m.4-.4h-6.7c.5 2 .7 5.3.7 8v3c0 2.6-.3 6-.7 8h6.7c-.5-2-.7-5.3-.7-8v-3c0-2.6.3-6 .7-8zM111.2 48.9c-.4 1.9-.6 5-.6 7.6v10.6h-4.3l-4.1-8.7-.1-.2h-.9v1.1c0 2.6.3 6 .7 7.9H96c.4-2 .7-5 .7-7.6v-3c0-2.6-.3-5.6-.7-7.6h5.1l4 8.4.1.2h.9v-1.9c0-2.1-.3-5-.6-6.8h5.7m.4-.4h-6.7c.4 1.6.7 4.8.7 7.2v1.5h-.3l-4.1-8.6h-5.8c.5 2 .8 5.3.8 8v3c0 2.6-.3 6-.8 8h6.7c-.4-1.8-.7-5.6-.7-8.2v-.7h.3l4.2 8.9h4.9V56.5c.1-2.6.3-6 .8-8zM127.4 48.9c.3.7.4 1.5.4 2.7 0 3.2-1.7 4.6-5.4 4.6H121v1.1h.8c1.7 0 2.3 1.1 2.8 2.2.5 1 1 2 2.2 2 .8 0 1.5-.2 2-.7v5.4c-.4.7-1.2 1.3-2.3 1.3-3.5 0-3.8-3.2-4.1-6-.2-2.1-.4-4.1-2.1-4.1-.4 0-.7.2-.9.5l-.1.1v1.5c0 2.7.3 5.7.6 7.6H114c.4-1.9.6-5 .6-7.6v-3c0-2.7-.3-5.7-.6-7.6h5.9c-.4 1.8-.6 4.5-.6 6.9v.5h.9c1.7 0 2.6-1.6 2.6-4.7 0-1.1-.2-1.9-.5-2.6h5.1m.2-.5h-5.8c.4.9.6 1.7.6 3 0 3.2-.9 4.3-2.2 4.3h-.5v-.1c0-2.5.3-5.4.7-7.2h-6.7c.5 2 .7 5.3.7 8v3c0 2.6-.3 6-.7 8h6.7c-.5-2-.7-5.3-.7-8v-1.4c.1-.2.4-.3.7-.3 3.3 0-.3 10 6.2 10 1.2 0 2.3-.7 2.7-1.6v-6.5c-.5.9-1.1 1.5-2.4 1.5-2.4 0-1.5-4.2-5.1-4.2h-.4v-.3h1c4.1 0 5.7-1.8 5.7-5 0-1.5-.2-2.3-.5-3.2z"/></svg>