<svg xmlns="http://www.w3.org/2000/svg" viewBox="0 0 145 145" style="enable-background:new 0 0 145 145" xml:space="preserve"><style>.st0{fill:#f2e2c2}.st2{fill:#fff}.st7{fill:#f76614}</style><g id="_x31_0"><circle class="st0" cx="72.5" cy="72.5" r="45.5"/><path d="M59.2 116.9c-11.9-3.6-21.6-11.5-27.5-22.4-5.9-10.9-7.1-23.4-3.6-35.3s11.5-21.6 22.4-27.5c10.9-5.9 23.4-7.1 35.3-3.6s21.6 11.5 27.5 22.4c5.9 10.9 7.1 23.4 3.6 35.3s-11.5 21.6-22.4 27.5-23.5 7.1-35.3 3.6zm26.2-87.1c-11.4-3.4-23.5-2.2-34 3.4s-18.2 15-21.6 26.4-2.2 23.5 3.4 34 15 18.2 26.4 21.6 23.5 2.2 34-3.4 18.2-15 21.6-26.4 2.2-23.5-3.4-34-15-18.2-26.4-21.6z"/><circle class="st0" cx="72.5" cy="72.5" r="26"/><path d="M64.8 98.3C50.6 94 42.5 79 46.7 64.8s19.3-22.3 33.5-18c14.2 4.3 22.3 19.3 18 33.5s-19.2 22.2-33.4 18zm15-49.9c-13.3-4-27.3 3.6-31.3 16.8-4 13.3 3.6 27.3 16.8 31.3S92.6 93 96.6 79.8c4-13.3-3.6-27.4-16.8-31.4zM37.2 72.3l1.3-.2c1.1-.2 2.5-.6 3.3-1l1.6 11.4-3.4 1c.2-.5.2-1.8.1-2.8l-.6-4.5-.5.1.4 3c.1.6.2 1.3.3 1.7h-1.3c0-.4-.1-1.1-.1-1.7l-.4-3-.6.1.7 4.8c.1.8.5 2.1 1.2 2.8l-3.8-.2-1.6-11.6c.8.3 2.3.3 3.4.1zM38.9 90.6c-.8-1.3-1.7-2.1-2.1-2.4.9-.1 2.4-.8 3.3-1.4l1.1-.7c1-.6 2.1-1.5 2.7-2.2l2.7 4.5c-.9.1-3.1 1.2-4 1.8l-.5.3 1.4 2.4c.6 1.1 1.4 1.9 2 2.3l-3 1.8s-.7-.4-1.2-1.3c-1.1-1.9-1.1-3-2.4-5.1zM48.1 98.4l1.3-.6c1.1-.6 2.5-1.4 3.1-2l4.8 3.4c-.3.8-.7 2.3-.8 3.6l-.2 1.4c-.2 1.3-.3 2.9-.2 4l-4.3-3c.2-.4.4-.8.6-1.5v-.1l-2.5-1.8-.1.1c-.6.5-.9.7-1.2 1l-4.3-3c1.2-.3 2.7-1 3.8-1.5zm4.5 3.7.2-.8c.1-.5.3-.9.5-1.4l-.1-.1c-.4.4-.6.7-1.2 1l-.7.4 1.3.9zM59 108.5l.8-3.6c1.1 1.2 3.2 2.2 6 2.7 1.2.2 1.8.3 1.9.1.2-1-8.4-.9-7.7-4.3.4-1.8 3-1.9 6.5-1.2 1.6.3 3.8 1 5.2 1.7l-.6 3.2c-1.2-.9-3-1.6-5-2-1.2-.2-2-.3-2 0-.2 1.1 8.4.7 7.8 4-.3 1.7-2.6 2.2-6.5 1.4-1.7-.2-5.1-1.3-6.4-2zM78.1 107.3l-.4-1.5-.9.2c-1.5.3-2.4.6-3.1 1l-.1-3.5 10.8-2.5 1.5 3.2c-.8-.1-1.8.1-3.2.4l-.9.2.4 1.5c.3 1.1.8 2.5 1.3 3.2l-5.1 1.2c.1-.9 0-2.3-.3-3.4zM88.6 103.8l-.7-1.1c-.6-1-1.5-2.1-2.2-2.6l4.4-2.7c.2.9.7 2.2 1.3 3.2l.7 1.1c.6 1 1.5 2.1 2.2 2.6l-4.4 2.7c-.2-.9-.7-2.3-1.3-3.2zM94.3 99.8c-2.3-2-1.3-5 1.3-7.9 1.5-1.7 2.9-2.7 4.1-3.3l2.2 2.6c-.9.1-2.3.9-3.6 2.4-1.1 1.3-1.9 2.6-1.3 3.1.6.5 1.8-.4 3.3-2.2 1.1-1.3 1.8-2.6 2-3.9l2.8 2.4c-.7 1.2-1.5 2.5-3 4.2-2.5 2.9-5.5 4.6-7.8 2.6zM39.8 60.2l-1.4-.2c-1.2-.1-2.9-.2-3.9-.1l2.8-4.6c.5.3 1 .5 1.7.6l2 .2c.5.1.8.2 1.3.3l.1-.1-3.4-3.7 1.6-2.5 4.8 1.3.1-.1c-.3-.4-.6-.7-.8-1.1l-1.1-1.6c-.4-.6-.8-.9-1.3-1.2l2.8-4.6c.4 1 1.2 2.4 1.9 3.5l.8 1.2c.7 1 1.6 2.2 2.3 2.8l-2.6 4.2-4.6-1.2-.1.1 3.1 3.5-2.6 4.1c-.8-.3-2.2-.6-3.5-.8zM52 44.2l-.6-1.1c-.5-1-1.4-2.2-2.1-2.8l10.2-5.4 2 2.8c-.5 0-1.7.4-2.7.9l-4 2.1.2.5 2.7-1.4c.5-.3 1.1-.6 1.5-.9l.6 1.1c-.4.1-1 .4-1.5.7l-2.7 1.4.3.5 4.3-2.2c.7-.4 1.8-1.2 2.2-2.1l1.1 3.6-10.4 5.5c-.1-.9-.6-2.2-1.1-3.2zM71.9 37.7l.1-1.6h-.9c-1.5-.1-2.5 0-3.3.2l.8-3.4 11 .4.6 3.4c-.8-.3-1.7-.4-3.2-.4h-.9l-.1 1.5c0 1.1.1 2.6.4 3.4l-5.2-.2c.4-.8.6-2.2.7-3.3zM82.8 38.8l.6-1.1c.5-1 .9-2.4 1-3.3l4.6 2.3c-.7.7-1.3 1.5-1.8 2.5l-.1.2 2.7 1.3.1-.2c.5-1 .8-2.1.9-3l4.6 2.3c-.7.6-1.5 1.8-2 2.8l-.6 1.1c-.5 1-1 2.4-1 3.3l-4.6-2.3c.6-.6 1.3-1.5 1.8-2.5l.1-.3-2.7-1.3-.1.3c-.5.9-.8 1.9-.9 3l-4.6-2.3c.7-.6 1.5-1.8 2-2.8zM95.4 46.3l.9-.9c.8-.8 1.7-2 2-2.8l3.7 3.7c-.8.4-2 1.2-2.8 2l-.9.9c-.8.8-1.7 1.9-2 2.8l-3.7-3.7c.9-.3 2-1.2 2.8-2zM101 51.7l1.2-.5c1-.5 2.3-1.2 2.9-1.9l2 4.5-1.4 5.3.1.1.2-.1c1.1-.5 2.3-1.3 2.8-1.8L111 62c-.9.1-2.3.4-3.3.9l-4.3 1.9-1.5-3.3 1.6-6.2-.1-.2-.2.1c-1.1.5-2.7 1.5-3.2 2.1l-2.2-4.7c.8 0 2.2-.4 3.2-.9zM107.6 72c0-.2 0-.4-.1-.5h-.5c-1.1 0-2.8.1-3.6.4l.2-5.2c.8.4 2.3.6 3.4.7l1.3.1c1.1.1 2.6-.1 3.4-.4l-.2 5.2c-.8-.4-1.9-.6-3-.7h-.1v.8c-.1 1.4.5 2.4 1.6 2.4.5 0 1.1-.1 1.5-.3l-.2 4.5c-.5.2-.9.4-1.6.3-1.7-.1-1.9-1.2-1.8-4.2V74h-.2c-.1 1.4-.6 1.7-.7 3.4-.1 1.4.5 2.3 1.2 2.6l-4.4-.2c-.5-.4-.9-1.2-.9-2.2.2-3.9 4.6-3.1 4.7-5.6z"/><path d="M72.3 89.5c.2-5.6 1.2-12.6 1.3-13.6 3.5-4 13.6-5.9 13.7-6h.2l.1-.2c1.3-3.4-1.3-5.9-1.3-5.9l-.1-.1h-.1c-5.1-.3-11.7 3.6-13.3 4.6-1.6-3.6-2.8-9.7-2.8-9.8 0-.1-.1-.2-.2-.3-1.3-.6-2.7-.5-4.2.2-1.1.5-1.8 1.2-1.9 1.3l-.1.1v.2c0 5.1 3.5 12.3 4.2 13.5-3.1 6.6-3.9 16.5-3.9 16.6v.4c.1 1.2 2.1 1.9 4.5 1.6 2.2-.3 4-1.5 3.9-2.6z" style="fill:#e2e2e2"/><path class="st2" d="m65.5 58.5-.3 2.1.1 1.5v2.1l1 3.2.5 1.5.4 2.1-.9-1.1-2.3-6.1-.5-3.8zM77.1 66.4l.8.4 1.7.7 4.3-.2 1.9.2 1.7-.4-1.3-3.3-3.1.3zM69.1 88.7l2.3.3 1.1-9.9-1.7 1.7-.7 1.8-.3 2.2-.3 1.5-.6 1z"/><path d="M81.9 63.5c.5-.1 1 .2 1.2.6.5.9 1.4 2.9 2.4 5.8 2.1 6.4 1.2 13.9-.5 15.6-1.5 1.5-3.5 1.7-5.4-1.1s-4.8-10-4.8-10l1.9-1s3.3 9.9 5.1 11 1.3-2.6 1-4.8c-.4-3.1-1.1-8.1-3.9-14-.2-.4-.1-.8.3-1 .5-.4 1.5-1 2.7-1.1z"/><path d="M81.9 86.6c-.9-.3-1.7-1-2.5-2.1-1.9-2.8-4.8-10-4.8-10v-.1l2.1-1.1v.1c0 .1 3.3 9.9 5 11 .3.2.5.2.7.1.7-.5.3-3.4.1-4.8v-.1c-.4-3-1.1-8.1-3.9-13.8-.2-.4-.1-.9.3-1.1.7-.5 1.7-1 2.9-1.2.5-.1 1 .2 1.3.7.5.9 1.4 2.8 2.4 5.9 1 2.9 1.4 6.3 1.2 9.6-.2 2.9-.8 5.2-1.7 6.1-.8.8-1.7 1.2-2.6 1.1-.1-.2-.3-.3-.5-.3zm-7-12.2c.3.8 2.9 7.3 4.7 9.9.9 1.3 1.9 2 2.9 2.1.8.1 1.7-.3 2.4-1 1.7-1.6 2.6-9 .5-15.4-1-3-1.9-4.9-2.4-5.8-.2-.4-.6-.6-1.1-.6-1.1.1-2.1.7-2.8 1.2-.3.2-.4.6-.2.9 2.8 5.8 3.5 10.8 3.9 13.9v.1c.3 2.2.6 4.5-.2 5-.2.2-.5.1-.9-.1-1.7-1.1-4.7-9.8-5.1-11l-1.7.8zM63.7 64.4c0 .2.3.4.5.3.8-.3 3.2-.4 4.3-.3 1.8.3 2.5.8 3.1 2.9l.7 2.1 1.9-1.1s-1.5-5.4-2.8-6.4c-1.9-1.5-6.5-.6-7.8-.2-.3.1-.5.4-.5.8l.6 1.9z"/><path d="M63.7 64.4c0 .2.3.4.5.3.8-.3 3.2-.4 4.3-.3 1.8.3 2.5.8 3.1 2.9l.7 2.1 1.9-1.1s-1.5-5.4-2.8-6.4c-1.9-1.5-6.5-.6-7.8-.2-.3.1-.5.4-.5.8l.6 1.9z"/><path d="M72.3 89.5c.2-5.6 1.2-12.6 1.3-13.6 3.5-4 13.6-5.9 13.7-6h.2l.1-.2c1.3-3.4-1.3-5.9-1.3-5.9l-.1-.1h-.1c-5.1-.3-11.7 3.6-13.3 4.6-1.6-3.6-2.8-9.7-2.8-9.8 0-.1-.1-.2-.2-.3-1.3-.6-2.7-.5-4.2.2-1.1.5-1.8 1.2-1.9 1.3l-.1.1v.2c0 5.1 3.5 12.3 4.2 13.5-3.1 6.6-3.9 16.5-3.9 16.6v.4c.1 1.2 2.1 1.9 4.5 1.6 2.2-.3 4-1.5 3.9-2.6zm-4.5-1.7c-1.3.1-2 .3-2.8.8.3-2.7.7-9.7 3-14.8.4.5 1.2 1.3 1.7 1.7 0 0-.8-1.3-1.4-2.4-.6-1.1-4.3-8-4.4-12.9.5-.5 3-2.3 5.2-1.4.2 1.2 1.4 6.8 3 10.2l.2.4.4-.2c.1 0 7.5-4.9 13.1-4.7.4.4 1.9 2.3 1.1 4.8-1.6.3-10.5 2.2-13.9 6.2-.9.7-1.2 1.7-1.2 1.7.4-.3.9-.7 1.1-.8-.3 2-1.1 5.5-1.9 11.9-.8-.7-1.6-.6-3.2-.5z"/><path class="st2" d="M81.6 65.5c-.1-.1 0-.3.2-.3s.4.1.6.4c.5.7 1.5 3.2 2.1 5.6.4 1.8.4 2.3.5 3.1 0 .1-.1.1-.1 0-.5-1.5-1.8-6.7-3.3-8.8zM64.6 63.2c-.1 0-.1.2 0 .3h.6c.8-.1 2.2-.2 3.8-.1 0 0 .1 0 0-.1-.2-.1-1.3-.5-4.4-.1z"/><path d="M68.7 88.2c0-.1.3-1.6.7-2 .2-.2.3-.7.3-1.4.1-.6.1-1.3.3-2.2.4-1.8 1.1-2.4 1.1-2.5 0 0 1.1-1 1.7-1.6l.1.1c-.6.5-1.7 1.6-1.7 1.6s-.7.6-1.1 2.4c-.2.8-.3 1.6-.3 2.2-.1.7-.1 1.2-.3 1.5-.4.4-.7 1.9-.8 1.9zM65.3 62.1s-.1-.8 0-1.5.3-2.1.3-2.2h.1s-.1 1.4-.3 2.2c-.2.8-.1 1.5-.1 1.5zM67.2 71c-.2-.5-.3-.9-.3-1.3-.1-.6-.1-1.3-.6-2.3-.8-1.8-1.1-3.1-1.1-3.1h.1s.2 1.2 1 3.1c.5 1 .5 1.7.6 2.3.1.4.2.8.3 1.3zM75.8 66.8c0-.1 1.3-.3 2.1-.1.8.2 1.7.7 1.7.7v.1s-.9-.6-1.7-.7c-.8-.2-2.1 0-2.1 0zM83.5 66.8c0-.1 1.3.1 1.9.1.6 0 1.6-.4 1.6-.4v.1s-1.1.4-1.7.4c-.5 0-1.8-.2-1.8-.2zM68 77.5c.1 0 .1 0 0 0 .1-.1.1-.2.1-.2v-.8s0-.1.1-.1H68.5V77.3c0 .1 0 .1.1.1h.1s.1 0 .1-.1c0 0 .1-.1 0-.1v-.4l.1.1.1.1v.7c0 .1.1.1.2.1 0 0 .1 0 .1-.1l.1-.1v-.8s0-.1-.1-.1c0 0 0-.1-.1-.1l-.1-.1-.1-.1h-.1l-.1-.1-.1-.1-.1-.1s-.1 0-.1-.1c-.1 0-.1-.1-.2-.1h-.2s-.1 0-.1.1l-.1.1c-.1.1-.1.1-.1.2v.6c0 .1 0 .1.1.2 0 0 0 .1.1.1-.1.3 0 .4 0 .3zM67.4 78.8h.2v-.6h.2s.1 0 .1.1h.1s.1 0 .1.1l.1.1.1.1.1.1.1.1.1.1s0 .1.1.1h.2c.1 0 .1-.1.1-.2 0 0 0-.1-.1-.1 0 0 0-.1-.1-.1l-.1-.1-.1-.1-.1-.1h-.7c-.1 0-.2 0-.2.1-.1 0-.1.1-.2.2v.6c-.1-.6 0-.5 0-.4z"/><path d="M67.7 80.4c.1 0 .2.1.3.1.1 0 .2.1.2.1.1 0 .1 0 .2.1H68.7s.1 0 .1-.1l.1-.1.1-.1v-.1s0-.1-.1-.1l-.2-.2-.2-.2-.2-.2-.1-.1-.1-.1V79.1h-.2l-.1-.1h-.3c-.1 0-.1-.1-.1-.1s-.1 0-.1.1l-.1.1.1.2.1.1.1.1h.1s.1 0 .1.1v.4h-.5c-.1 0-.1.1-.1.1v.2H67.4c.1.1.2.1.3.1zm.4-.3c0-.1 0-.1 0 0V80v.1c0-.1 0-.1 0 0 .1 0 .1 0 .1.1.1 0 .1.1.2.1h-.2c-.1-.1-.1-.1-.1-.2z"/><path d="M67.3 82.9c0 .1 0 .1 0 0l.3.2s.1 0 .1.1h.1l.1.1V83.6s0 .1.1.1h.1s.1 0 .1-.1l.1-.1V82.2h.2l.1-.1s.1-.1.1-.2v-.2c0-.1 0-.2-.1-.3V81s0-.1-.1-.1l-.1-.1-.1-.1-.1-.1-.1-.1h-.4s-.1 0-.1.1l-.1.1-.1.1v.2s-.1 0-.1.1h-.1v-.2s0-.1.1-.1c0 0 0-.1.1-.1s.1-.1.1-.1v-.2h-.2s-.1 0-.1.1c0 0-.1 0-.1.1v.1s0 .1-.1.1v.7l.1.1H67.4s.1 0 .1-.1l.1-.1s.1-.1.1-.2.1-.1.1-.1.1 0 .1.1l.1.1v.1s0 .1.1.1v.5l-.1-.1-.1-.1h-.1s-.1 0-.2.1v.2c0 .1 0 .1.1.2 0 .1.1.1.1.1h-.1s-.1.1-.1.2v.2h-.1l-.1-.1-.1-.1s-.1 0-.1-.1H66.9s-.1 0-.1-.1l-.1-.1s-.1 0-.1-.1h-.1c-.1 0-.1.1-.1.1v.2l.1.1s.1 0 .1.1l.1.1c.4 0 .4.1.6.1-.1 0 0 0 0 0zM66.7 84.2h.1l.3.2h.1l.2.1h.1s.1 0 .1.1v.4h.2s.1 0 .1-.1c0 0 0-.1.1-.2V84s0-.1-.1-.1h-.1s-.1 0-.1.1c-.1.1 0 .1 0 .1v.1s-.1-.1-.2-.1h-.1s-.1 0-.1-.1h-.2s-.1 0-.1-.1l-.1-.1h-.2V83.5c0-.1 0-.1-.1-.1h-.1s0 .1-.1.1v.2c-.1.1-.1.1-.1.2s0 .1.1.1v.5H66.7s0-.1.1-.1c-.2-.1-.2-.1-.1-.2zM67.8 86.3c0-.1.1-.1.1-.2v-.2c0-.1 0-.1-.1-.2 0 0 0-.1-.1-.1l-.1-.1s-.1-.1-.1-.2l-.1-.1-.1-.1h-.1l-.1-.1c-.1 0-.1-.1-.2-.1s-.1 0-.2-.1h-.4c-.1 0-.1 0-.1.1l-.1.1s0 .1-.1.1v.8c0 .1 0 .1.1.1 0 0 .1 0 .1.1h.1c.1 0 .1-.1.1-.1V85.3H66.7c.1 0 .1 0 .2.1h.1c.1 0 .1.1.2.1l.2.2c.1.1.1.1.1.2 0 0 0 .1.1.1h-.2s-.1 0-.1-.1c0 0 0-.1-.1-.1h-.1l-.1.1v.2c0 .1.1.1.1.1s.1.1.2.1.1.1.2.1h.2s.1 0 .1-.1z"/><path class="st2" d="M70.8 89.4c.1-.1.2 0 .2.1.1.4-.6 1-1.5 1.3-1.1.4-2.5.6-3.9.5-.1 0-.1-.2 0-.2.8-.2 2-.5 3-.7.9-.3 2-.7 2.2-1z"/><path d="m79.6 57.5-1.4-3.2-4.8-3.2-1.4.5-.6 1.7.6 4.2 2 2 3 1.4 2.4-1.4.2-2z" style="fill:#ff5700"/><path d="m79.6 57.5-1.4-3.2-4.6-3.3c-.2-.1-.4-.1-.5 0l-1.1.6-1 1.7 1 4.3 2 2 3 1.4 2.4-1.4.2-2.1zm-7.4-1.2L72 54l1.5-1.2.2-1.2 4.3 3 .3 1.8-.6 1.4-1.2-.1-1.1 1.8-1.5-1.1-.9-1.2-.8-.9z"/><path d="m72.6 51.9.9 2.1 1.7 2.2 1.2 1.9 1 .5-3.2-4.3-1.1-2.2z"/><path d="m75.8 53.1-.3.9-.7 1.4.2.2.7-1.4.2-1.2z"/><circle cx="105.2" cy="85.9" r="1.3"/><circle cx="37.8" cy="65.6" r="1.3"/></g></svg>